<?xml version="1.0" encoding="utf-8"?>
<!-- Generator: Adobe Illustrator 27.5.0, SVG Export Plug-In . SVG Version: 6.00 Build 0)  -->
<svg version="1.1" xmlns="http://www.w3.org/2000/svg" xmlns:xlink="http://www.w3.org/1999/xlink" x="0px" y="0px"
	 viewBox="0 0 500 500" style="enable-background:new 0 0 500 500;" xml:space="preserve">
<g id="Floor">
	<ellipse style="fill:#F5F5F5;" cx="248.286" cy="341.157" rx="217.702" ry="129.177"/>
</g>
<g id="Shadows">
	<path id="freepik--shadow--inject-54_1_" style="fill:#E0E0E0;" d="M295.209,308.323l-130.65,75.47c-1.593,0.81-3.477,0.81-5.07,0
		l-15.54-8.54c-1.4-0.81-1.4-2.12,0-2.92l130.69-75.48c1.593-0.81,3.477-0.81,5.07,0l15.5,8.54
		C296.609,306.253,296.609,307.513,295.209,308.323z"/>
	<ellipse style="fill:#E0E0E0;" cx="333.29" cy="400.311" rx="51.534" ry="28"/>
	<ellipse style="fill:#E0E0E0;" cx="402.876" cy="315.871" rx="21.876" ry="11.886"/>
	<ellipse style="fill:#E0E0E0;" cx="89.208" cy="322.249" rx="34.799" ry="18.907"/>
</g>
<g id="Clouds">
	<g>
		<path style="fill:#E0E0E0;" d="M373.886,65.077l6.74,3.89v-5.35c0-3.108,2.543-4.182,5.651-2.388l0.235,0.136
			c1.367,0.789,2.624,2.007,3.604,3.389c0.174-5.237,4.583-7.005,9.961-3.9l0.416,0.241c5.488,3.168,9.977,10.252,9.977,15.739
			v9.359l6.223,3.592c2.636,1.522,4.793,4.925,4.793,7.561c0,2.636-2.157,3.548-4.793,2.026l-8.288-4.784
			c-0.002,0.002-0.004,0.003-0.006,0.005l-16.23-9.371c-0.002-0.003-0.003-0.006-0.004-0.009l-18.279-10.551
			c-2.636-1.522-4.793-4.925-4.793-7.561C369.093,64.467,371.25,63.555,373.886,65.077z"/>
		<path style="fill:#E0E0E0;" d="M421.573,55.051l4.649,2.683v-3.69c0-2.144,1.754-2.885,3.897-1.647l0.162,0.094
			c0.943,0.544,1.81,1.385,2.486,2.337c0.12-3.612,3.161-4.831,6.87-2.69l0.287,0.166c3.785,2.185,6.881,7.071,6.881,10.856v6.455
			l4.292,2.478c1.818,1.05,3.306,3.396,3.306,5.215c0,1.818-1.488,2.447-3.306,1.397l-5.716-3.299
			c-0.002,0.001-0.003,0.002-0.004,0.003l-11.194-6.463c-0.001-0.002-0.002-0.004-0.003-0.006l-12.607-7.277
			c-1.818-1.05-3.306-3.396-3.306-5.215C418.267,54.63,419.755,54.001,421.573,55.051z"/>
	</g>
</g>
<g id="Tree">
	<g>
		<path style="fill:#BA68C8;" d="M78.747,202.161c1.797-0.181,3.608,0.145,5.23,0.94c3.14,1.52,5.74,3.94,8.53,6s6,4,9.46,4.09
			s7.25-2.06,7.88-5.49c0.041-0.606,0.193-1.199,0.45-1.75c0.712-0.904,1.941-1.22,3-0.77c1.009,0.458,1.97,1.014,2.87,1.66
			c3.53,2.08,8,1.61,12,1c3.37-0.49,7.63-2,7.62-5.39c0-2.22-2-3.87-3.48-5.48c-1.48-1.61-2.78-4.2-1.38-5.93
			c0.537-0.584,1.232-1.001,2-1.2c4.22-1.37,9.39,0.46,13-2.18c2.64-2,3.26-6,1.87-8.93c-1.556-2.956-4.337-5.075-7.6-5.79
			c-2.83-0.72-6.43-1.05-7.49-3.78c-0.92-2.39,0.94-5,3-6.44s4.63-2.5,6.09-4.6c1.466-2.287,1.543-5.199,0.2-7.56
			c-1.383-2.307-3.701-3.898-6.35-4.36c-1.319-0.099-2.619-0.382-3.86-0.84c-1.18-0.6-2.07-2.09-1.43-3.25
			c0.38-0.7,1.19-1.06,1.65-1.71c0.89-1.25,0.12-3.11-1.14-4c-1.347-0.761-2.799-1.317-4.31-1.65c-3.06-1-6-4-5.12-7.08
			c0.88-3.08,5.34-4.26,6.64-7.36c1.16-2.73-0.67-5.93-3.13-7.6s-5.52-2.3-8.2-3.57s-5.28-3.51-5.5-6.48s2.05-5.59,3.91-8
			s3.43-5.79,1.81-8.36s-5-2.62-7.81-3.51c-3.432-1.111-6.229-3.631-7.69-6.93c-0.74-1.72-1.1-3.59-2-5.23
			c-2.72-5.11-9.72-7.34-15.1-6.72c-2.82,0.38-3.76,1.38-5.13,3.48c-0.79,1.23-1.6,1.85-1.88,3.54c-0.41,2.47,0.9,5.6-1.43,7.49
			c-3.54,2.86-9-1-8.76,5.41c-0.004,2.711,0.397,5.407,1.19,8c1,2.69,2.89,3.85,1.29,6.87c-2.08,3.9-3.44,3.88-7.6,3.87
			c-3,0-5.53-0.17-7.74,2.12c-3.89,4-1.58,7.65,1.87,10.75c3.93,3.52,1.85,5.07,1.34,9.63c-0.25,2.2,0.25,2.87-1.71,4.33
			c-3.72,2.76-5.79,1.83-4.75,7.23c1,4.93-0.52,3.24-4.79,5.08c-3.79,1.63-6.29,5.71-9.36,8.25c-2,1.64-5,2.9-5.16,5.77
			c-0.36,5.5,6.48,4.3,9.73,5.61c5.31,2.15,3.73,9.11-0.42,11.72c-4.39,2.75-10.79,3.78-11.14,10.07c-0.27,4.83,2.47,5.9,6.22,7.51
			c3,1.29,2.61,1.67,2.6,5.24c0,7.2,2.42,9.24,9.52,8.06c1.94-0.32,4.91-1.14,6.85-0.56c2.71,0.82,1.8,1.49,1.87,3.76
			c0.2,5.81,7,4.17,9.83,1.68C70.107,205.931,74.257,202.601,78.747,202.161z"/>
		<path style="opacity:0.15;enable-background:new    ;" d="M132.857,189.901c3.24-1.05,7-0.23,10.24-1
			c-1.888-0.443-3.807-0.744-5.74-0.9c-4.635-0.203-9.136,1.584-12.37,4.91c1.698,2.092,2.582,4.727,2.49,7.42
			c-8,2.18-16-8.6-23.62-5.32c0.47,3.89,0,9.12-3.77,10c-2.23,0.5-4.47-1-5.85-2.81s-2.23-4-3.62-5.82
			c-4.029-4.876-11.098-5.905-16.35-2.38c-2.08,1.51-4.68,3.79-6.75,2.28c-2.23-1.61-0.87-6-3.33-7.21
			c-1.64-0.82-3.93,0.47-5.3-0.73c-0.508-0.556-0.836-1.254-0.94-2c-1-4.11-1.82-8.86,0.77-12.2c2.3-3,7.17-4.8,6.65-8.52
			c-0.45-3.18-4.49-4.15-7.69-4.52s-7.23-1.87-7.07-5.08s4.43-4.67,5.06-7.76c0.26-1.32-0.18-2.79,0.42-4
			c0.91-1.81,3.51-1.88,5-3.22c2.73-2.42,0.61-6.94,1.38-10.5c0.55-2.52,2.59-4.5,3.26-7c1.36-5-3.17-9.7-7.9-11.73
			c-1.867-0.657-3.663-1.501-5.36-2.52l-0.17-0.13c0.11,2.25,1.78,4.34,3.88,6.22c3.93,3.52,1.85,5.07,1.34,9.63
			c-0.25,2.2,0.25,2.87-1.71,4.33c-3.72,2.76-5.79,1.83-4.75,7.23c1,4.93-0.52,3.24-4.79,5.08c-3.79,1.63-6.29,5.71-9.36,8.25
			c-2,1.64-5,2.9-5.16,5.77c-0.36,5.5,6.48,4.3,9.73,5.61c5.31,2.15,3.73,9.11-0.42,11.72c-4.39,2.75-10.79,3.78-11.14,10.07
			c-0.27,4.83,2.47,5.9,6.22,7.51c3,1.29,2.61,1.67,2.6,5.24c0,7.2,2.42,9.24,9.52,8.06c1.94-0.32,4.91-1.14,6.85-0.56
			c2.71,0.82,1.8,1.49,1.87,3.76c0.2,5.81,7,4.17,9.83,1.68c3.3-2.86,7.45-6.19,11.93-6.63c1.797-0.181,3.608,0.145,5.23,0.94
			c3.14,1.52,5.74,3.94,8.53,6s6,4,9.46,4.09s7.25-2.06,7.88-5.49c0.041-0.606,0.193-1.199,0.45-1.75c0.712-0.904,1.941-1.22,3-0.77
			c1.009,0.458,1.97,1.014,2.87,1.66c3.53,2.08,8,1.61,12,1c3.37-0.49,7.63-2,7.62-5.39c0-2.22-2-3.87-3.48-5.48
			c-1.48-1.61-2.78-4.2-1.38-5.93C131.449,190.47,132.12,190.086,132.857,189.901z"/>
		<path style="fill:#455A64;" d="M64.747,135.091l21.86,43.34v-19.94l2.23-51.83l3.23,51.83v13.41l24-42l-24,51.56v144.24
			c-0.048,0.487-0.353,0.911-0.8,1.11c-1.214,0.61-2.646,0.61-3.86,0c-0.447-0.199-0.752-0.623-0.8-1.11v-136.21L64.747,135.091z"/>
	</g>
</g>
<g id="Locator">
	<g>
		<path style="fill:#BA68C8;" d="M407.559,142.521c-6.043-3.475-11.496-3.599-15.424-0.961l-7.655,4.389
			c-4.717,2.224-7.646,7.875-7.508,16.103v3.351c0.232,13.811,19.92,52.021,22.36,56.705c-0.268,0.29-0.439,0.474-0.439,0.474
			l0.527-0.304c0.103,0.198,0.159,0.304,0.159,0.304s0.476-0.406,1.271-1.129l6.709-3.87c0,0,21.66-17.855,21.66-32.524v-3.351
			C429.219,166.969,419.522,149.429,407.559,142.521z M398.549,160.033c6.464,4.064,10.602,10.967,11.139,18.583
			c0.015,0.843-0.046,1.625-0.172,2.345c-0.635-0.233-1.287-0.529-1.956-0.917c-6.378-4.179-10.383-11.147-10.782-18.762h-0.055
			c0-0.72,0.065-1.384,0.167-2.013C397.431,159.476,397.982,159.718,398.549,160.033z"/>
		<path style="opacity:0.2;enable-background:new    ;" d="M376.971,165.403c0.247,14.724,22.608,57.178,22.608,57.178
			s21.371-18.157,21.138-32.881v-3.351c-0.247-14.724-10.232-32.112-22.319-38.815c-12.087-6.703-21.674-0.22-21.426,14.518V165.403
			z M387.822,166.474c-0.11-6.867,4.697-9.793,10.727-6.442c6.464,4.064,10.602,10.967,11.139,18.583
			c0.124,6.867-4.684,9.793-10.727,6.442C392.505,180.986,388.37,174.087,387.822,166.474z"/>
	</g>
</g>
<g id="Device">
	<g>
		<g>
			<g>
				<path style="fill:#455A64;" d="M274.832,58.222l-104.1,60.596c-3.1,1.805-5.007,5.121-5.007,8.709v244.385
					c0,2.855,3.096,4.636,5.564,3.199l102.873-59.881c3.178-1.85,5.132-5.249,5.132-8.926V60.788
					C279.294,58.498,276.811,57.07,274.832,58.222z"/>
				<path style="fill:#37474F;" d="M279.294,60.785v0.325c0-0.193-0.01-0.376-0.02-0.569
					C279.294,60.622,279.294,60.703,279.294,60.785z"/>
				<path style="fill:#FFFFFF;" d="M271.72,93.028l-97.805,56.871c-2.304,1.34-3.722,3.804-3.722,6.469v182.141
					c0,1.397,1.514,2.268,2.722,1.566l98.668-57.373c1.783-1.037,2.88-2.944,2.88-5.006V94.606
					C274.463,93.198,272.937,92.321,271.72,93.028z"/>
				<path style="fill:#37474F;" d="M171.284,375.112c-0.164,0.095-0.331,0.174-0.499,0.242
					C170.952,375.271,171.121,375.206,171.284,375.112z"/>
				<path style="fill:#263238;" d="M279.233,60.154c-0.417-1.912-2.614-2.97-4.404-1.932l-104.094,60.595
					c-1.424,0.834-2.604,1.983-3.448,3.336c-1.007,1.577-1.566,3.438-1.566,5.37v244.385c0,2.665,2.705,4.394,5.065,3.448
					c-5.767,2.848-13.242-1.861-13.242-1.861c-6.906-3.814-6.397-10.74-6.397-10.74V118.369c0-1.77,0.468-3.478,1.312-4.963
					c0.865-1.526,2.126-2.827,3.692-3.743l104.105-60.595c0,0,4.251-2.685,11.665,2.004
					C271.921,51.072,278.531,54.601,279.233,60.154z"/>
				<path style="fill:#37474F;" d="M279.233,60.154c-0.417-1.912-2.614-2.97-4.404-1.932l-104.094,60.595
					c-1.424,0.834-2.604,1.983-3.448,3.336l-14.829-8.746c0.865-1.526,2.126-2.827,3.692-3.743l104.105-60.595
					c0,0,4.251-2.685,11.665,2.004C271.921,51.072,278.531,54.601,279.233,60.154z"/>
				<path style="fill:#37474F;" d="M208.8,118.607c0,2.159-1.75,4.92-3.909,6.166c-2.159,1.247-3.909,0.507-3.909-1.652
					c0-2.159,1.75-4.92,3.909-6.166C207.05,115.708,208.8,116.448,208.8,118.607z"/>
				<path style="fill:#37474F;" d="M229.346,325.571c0,3.885-3.15,8.853-7.035,11.096c-3.885,2.243-7.034,0.912-7.034-2.973
					c0-3.885,3.15-8.853,7.034-11.096C226.197,320.355,229.346,321.686,229.346,325.571z"/>
				<path style="fill:#455A64;" d="M154.748,160.29c0,1.869,1.515,4.26,3.385,5.339c1.869,1.079,3.385,0.439,3.385-1.431
					c0-1.869-1.515-4.26-3.385-5.339C156.263,157.781,154.748,158.421,154.748,160.29z"/>
				<path style="fill:#455A64;" d="M154.748,183.11c0,1.869,1.515,4.26,3.385,5.339c1.869,1.079,3.385,0.439,3.385-1.431
					s-1.515-4.26-3.385-5.339C156.263,180.6,154.748,181.241,154.748,183.11z"/>
				<path style="fill:#37474F;" d="M224.123,98.545c0,1-0.811,2.28-1.812,2.858c-1,0.578-1.812,0.235-1.812-0.766
					c0-1,0.811-2.28,1.812-2.858C223.312,97.201,224.123,97.544,224.123,98.545z"/>
				<path style="fill:#37474F;" d="M216.397,117.113l24.383-14.194c1.314-0.765,2.123-2.171,2.123-3.692v0
					c0-1.455-1.578-2.362-2.835-1.63l-24.383,14.194c-1.314,0.765-2.123,2.171-2.123,3.692l0,0
					C213.562,116.937,215.14,117.845,216.397,117.113z"/>
			</g>
			<g>
				<path style="fill:#E0E0E0;" d="M198.585,135.552v45.145c0,2.038-0.663,4.014-1.901,5.627l-26.487,34.59v-64.541
					c0-2.676,1.413-5.14,3.714-6.478L198.585,135.552z"/>
				<path style="fill:#E0E0E0;" d="M207.872,180.385l29.075-16.906c1.904-1.107,3.076-3.144,3.076-5.346v-46.673l-34.947,20.321
					v46.996C205.076,180.211,206.631,181.106,207.872,180.385z"/>
				<path style="fill:#E0E0E0;" d="M240.028,172.478v26.929c0,1.145-0.609,2.203-1.599,2.779l-18.53,10.778
					c-0.863,0.502-1.393,1.424-1.393,2.422v17.52c0,1.209-0.643,2.326-1.689,2.934l-10.204,5.929
					c-0.682,0.397-1.538-0.096-1.538-0.885v-47.93c0-1.518,0.807-2.921,2.12-3.684l30.846-17.934
					C238.923,170.823,240.028,171.459,240.028,172.478z"/>
				<path style="fill:#E0E0E0;" d="M223.548,215.451l15.375-8.949c0.49-0.286,1.106,0.068,1.106,0.636v13.678
					c0,0.944-0.502,1.817-1.319,2.292l-15.015,8.728c-0.532,0.309-1.199-0.075-1.199-0.69V217.28
					C222.496,216.526,222.896,215.83,223.548,215.451z"/>
				<path style="fill:#E0E0E0;" d="M223.548,241.757l15.375-8.949c0.49-0.285,1.106,0.068,1.106,0.636v13.678
					c0,0.944-0.502,1.817-1.319,2.292l-15.015,8.728c-0.532,0.309-1.199-0.075-1.199-0.69v-13.866
					C222.496,242.832,222.896,242.136,223.548,241.757z"/>
				<path style="fill:#E0E0E0;" d="M223.548,262.72l15.375-8.949c0.49-0.285,1.106,0.068,1.106,0.636v22.019
					c0,0.944-0.502,1.817-1.319,2.292l-15.015,8.728c-0.532,0.309-1.199-0.075-1.199-0.69V264.55
					C222.496,263.796,222.896,263.1,223.548,262.72z"/>
				<path style="fill:#E0E0E0;" d="M243.818,286.725v12.124l-36.329,21.122v-12.355c0-1.437,0.777-2.761,2.032-3.461l32.806-18.306
					C242.995,285.477,243.818,285.96,243.818,286.725z"/>
				<path style="fill:#E0E0E0;" d="M198.585,197.88v57.288c0,1.688-0.9,3.251-2.364,4.102l-26.024,15.132v-41.818l26.949-35.191
					C197.61,196.779,198.585,197.104,198.585,197.88z"/>
				<path style="fill:#E0E0E0;" d="M274.469,94.609v26.974l-25.231,14.39c-0.961,0.548-2.156-0.146-2.156-1.253v-27.368
					l24.642-14.323C272.942,92.322,274.469,93.201,274.469,94.609z"/>
				<path style="fill:#E0E0E0;" d="M274.469,138.409v63.885l-25.8,14.988c-0.704,0.409-1.587-0.099-1.587-0.914v-48.914
					c0-1.716,0.699-3.359,1.935-4.549L274.469,138.409z"/>
				<path style="fill:#E0E0E0;" d="M274.463,125.379l-25.993,16.068c-0.863,0.533-1.388,1.476-1.388,2.491v10.28
					c0,0.77,0.923,1.166,1.481,0.635l25.906-24.637L274.463,125.379z"/>
				<path style="fill:#E0E0E0;" d="M218.507,246.845v41.122c0,1.48-0.787,2.849-2.067,3.593l-31.673,18.407
					c-0.663,0.388-1.501-0.088-1.501-0.863V277.34c0-0.95,0.513-1.838,1.326-2.314l19.158-11.167
					c0.825-0.475,1.326-1.363,1.326-2.314v-7.678c0-0.988,0.525-1.888,1.376-2.389l10.006-5.813
					C217.367,245.137,218.507,245.794,218.507,246.845z"/>
				<path style="fill:#E0E0E0;" d="M200.574,311.868v12.13l-27.662,16.082c-1.201,0.7-2.714-0.175-2.714-1.576v-55.087l3.489-2.038
					c0.663-0.375,1.488,0.1,1.488,0.863v38.529c0,1.138,1.226,1.863,2.226,1.313l20.797-11.605
					C199.261,309.879,200.574,310.655,200.574,311.868z"/>
				<path style="fill:#E0E0E0;" d="M274.469,212.111v63.253l-23.26,13.618c-1.125,0.663-2.539-0.15-2.539-1.451v-57.888
					c0-1.551,0.825-2.976,2.163-3.764L274.469,212.111z"/>
			</g>
			<g>
				<path style="fill:#BA68C8;" d="M179.706,315.871h-1V275.26c0-1.094,0.581-2.124,1.518-2.688l20.726-12.5
					c0.614-0.371,0.996-1.048,0.996-1.766v-68.773c0-1.409,0.75-2.733,1.958-3.457l37.258-22.36c1.33-0.798,2.156-2.258,2.156-3.81
					v-20.425h1v20.425c0,1.901-1.013,3.689-2.643,4.667l-37.258,22.36c-0.907,0.544-1.472,1.541-1.472,2.6v68.773
					c0,1.066-0.567,2.07-1.479,2.621l-20.727,12.5c-0.637,0.385-1.033,1.087-1.033,1.832V315.871z"/>
				<path style="opacity:0.4;" d="M179.706,315.871h-1V275.26c0-1.094,0.581-2.124,1.518-2.688l20.726-12.5
					c0.614-0.371,0.996-1.048,0.996-1.766v-68.773c0-1.409,0.75-2.733,1.958-3.457l37.258-22.36c1.33-0.798,2.156-2.258,2.156-3.81
					v-20.425h1v20.425c0,1.901-1.013,3.689-2.643,4.667l-37.258,22.36c-0.907,0.544-1.472,1.541-1.472,2.6v68.773
					c0,1.066-0.567,2.07-1.479,2.621l-20.727,12.5c-0.637,0.385-1.033,1.087-1.033,1.832V315.871z"/>
				<path style="fill:#BA68C8;" d="M181.909,314.003c0,1.493-1.21,3.402-2.703,4.264c-1.493,0.862-2.703,0.35-2.703-1.142
					c0-1.493,1.21-3.402,2.703-4.264C180.699,311.998,181.909,312.51,181.909,314.003z"/>
				<path style="fill:#BA68C8;" d="M246.429,137.921c0,1.493-1.21,3.402-2.703,4.264c-1.493,0.862-2.703,0.35-2.703-1.143
					c0-1.493,1.21-3.402,2.703-4.264C245.219,135.917,246.429,136.429,246.429,137.921z"/>
			</g>
			<path style="fill:#BA68C8;" d="M252.371,122.257l-0.001,0.001c1.17-1.84,1.954-3.785,2.164-5.603
				c0.563-4.87-3.194-6.996-8.389-4.748c-5.195,2.248-9.88,8.028-10.443,12.898c-0.21,1.819,0.185,3.253,1.032,4.22l-0.005,0.002
				l0.065,0.059c0.157,0.171,0.33,0.325,0.515,0.464l5.446,4.909c0.356,0.32,1.16-0.028,1.631-0.706l7.179-10.335
				c0.281-0.379,0.552-0.762,0.8-1.152L252.371,122.257z M245.639,116.278c2.624-1.135,4.514-0.065,4.23,2.394
				c-0.285,2.46-2.635,5.365-5.259,6.501c-2.624,1.135-4.514,0.065-4.23-2.394C240.665,120.319,243.015,117.414,245.639,116.278z"/>
		</g>
		<g>
			<path style="fill:#BA68C8;" d="M220.47,249.364l-10.017,5.753c-0.553,0.318-0.894,0.907-0.894,1.545v11.082
				c0,0.311,0.337,0.506,0.607,0.351l3.402-1.954l1.184,1.981c0.073,0.122,0.256,0.101,0.299-0.035l1.085-3.421l3.972-2.281
				c0.668-0.383,1.079-1.094,1.079-1.864v-10.743C221.186,249.411,220.788,249.181,220.47,249.364z"/>
			<g>
				<path style="fill:#FFFFFF;" d="M212.715,260.979v1.17l-0.615,0.355v-1.161l-1.303-1.403l0.658-0.38l0.971,1.055l0.981-2.182
					l0.606-0.351L212.715,260.979z"/>
				<path style="fill:#FFFFFF;" d="M214.521,260.974c-0.206,0.008-0.366-0.054-0.482-0.184c-0.114-0.131-0.172-0.321-0.172-0.571
					c0-0.25,0.058-0.506,0.172-0.767c0.115-0.263,0.276-0.508,0.482-0.738c0.205-0.229,0.435-0.417,0.691-0.565
					c0.259-0.149,0.491-0.228,0.697-0.236c0.205-0.008,0.365,0.053,0.48,0.182c0.115,0.129,0.173,0.319,0.173,0.569
					c0,0.248-0.058,0.506-0.173,0.769c-0.115,0.264-0.276,0.511-0.48,0.74c-0.206,0.229-0.438,0.419-0.697,0.568
					C214.956,260.889,214.725,260.966,214.521,260.974z M215.752,259.704c0.143-0.228,0.213-0.459,0.213-0.696
					c0-0.237-0.07-0.388-0.213-0.45c-0.142-0.064-0.322-0.032-0.54,0.093c-0.217,0.126-0.397,0.304-0.537,0.53
					c-0.141,0.225-0.211,0.457-0.211,0.694c0,0.237,0.07,0.388,0.211,0.452c0.14,0.065,0.32,0.032,0.537-0.093
					C215.43,260.107,215.609,259.931,215.752,259.704z"/>
				<path style="fill:#FFFFFF;" d="M219.579,255.655v2.53l-0.563,0.325v-0.322c-0.095,0.168-0.213,0.324-0.355,0.468
					c-0.142,0.143-0.295,0.263-0.46,0.358c-0.337,0.195-0.603,0.254-0.798,0.179c-0.194-0.075-0.291-0.298-0.291-0.668v-1.445
					l0.592-0.343v1.366c0,0.226,0.051,0.367,0.154,0.42c0.102,0.053,0.249,0.024,0.438-0.085c0.211-0.122,0.379-0.285,0.504-0.488
					c0.124-0.202,0.186-0.426,0.186-0.674v-1.28L219.579,255.655z"/>
			</g>
		</g>
	</g>
</g>
<g id="Character">
	<g>
		<g>
			<path style="fill:#263238;" d="M358.658,385.585c0,0,0.39,0.526,0.476,1.755c0.086,1.229,0.171,4.742,0,5.599
				c-0.172,0.857-2.038,2.114-4.333,1.857c-2.295-0.257-3.894-2.028-5.037-3.77c-1.143-1.743-6.142-7.742-7.056-9.198
				c-0.914-1.457-2.326-5.292-0.555-6.872c1.491-1.331,7.068,1.702,8.554,3.387C352.192,380.026,358.658,385.585,358.658,385.585z"
				/>
			<path style="fill:#263238;" d="M334.91,403.222c0,0,0.71,0.986,1.114,2.799c0.359,1.609,0.935,5.471,0.634,6.629
				c-0.146,0.56-2.149,1.982-4.12,2.096c-1.172,0.068-2.579,0.113-3.713,0.149c-0.847,0.027-1.673,0.237-2.428,0.624
				c-1.366,0.701-3.806,1.897-6.284,2.842c-3.742,1.428-8.655,1.971-11.026,1.485c-2.371-0.485-5.138-1.957-6.254-3.455
				c-0.517-0.693-0.361-2.04,0.108-2.431c2.895-2.412,7.688-3.598,10.66-4.836c5.009-2.086,10.835-5.662,11.568-6.243
				C325.901,402.302,334.91,403.222,334.91,403.222z"/>
			<path style="fill:#FFA8A7;" d="M334.91,397.73v5.492c0,0-1.433,2.089-4.938,2.255c-2.989,0.142-4.539-1.824-4.804-2.595
				c0,0,0.286-3.553,0.134-5.152H334.91z"/>
			<path style="fill:#FFA8A7;" d="M358.658,382.271v3.314c0,0-0.49,1.738-3.804,1.843c-2.586,0.082-4.069-1.259-4.069-1.259
				l-0.692-4.866L358.658,382.271z"/>
			<path style="fill:#BA68C8;" d="M314.56,280.811c0,0,1.175,52.396,2.693,61.962c1.043,6.568,7.999,56.34,7.999,56.34
				c5.207,2.746,9.821-0.086,9.821-0.086s0.013-1.749,0.236-4.601c0.224-2.864,2.41-27.16,2.186-36.3
				c-0.224-9.151-3.073-15.48-3.073-15.48l3.081-45.18l1.43,0.181c0,0-0.074,4.821,0.523,13.379c0,0,1.139,17.25,1.542,20.64
				c0.761,6.321,4.993,29.334,6.24,35.438c1.117,5.463,2.937,15.564,2.937,15.564c2.674,2.662,8.494,0.565,8.494,0.565
				s0.29-6.862,0.592-11.047c0.313-4.195,1.579-22.995,1.066-27.945c-0.713-6.88-3.523-13.497-3.27-15.25
				c1.466-10.13,1.6-53.252,1.6-53.252L314.56,280.811z"/>
			<path style="opacity:0.4;" d="M314.56,280.811c0,0,1.175,52.396,2.693,61.962c1.043,6.568,7.999,56.34,7.999,56.34
				c5.207,2.746,9.821-0.086,9.821-0.086s0.013-1.749,0.236-4.601c0.224-2.864,2.41-27.16,2.186-36.3
				c-0.224-9.151-3.073-15.48-3.073-15.48l3.081-45.18l1.43,0.181c0,0-0.074,4.821,0.523,13.379c0,0,1.139,17.25,1.542,20.64
				c0.761,6.321,4.993,29.334,6.24,35.438c1.117,5.463,2.937,15.564,2.937,15.564c2.674,2.662,8.494,0.565,8.494,0.565
				s0.29-6.862,0.592-11.047c0.313-4.195,1.579-22.995,1.066-27.945c-0.713-6.88-3.523-13.497-3.27-15.25
				c1.466-10.13,1.6-53.252,1.6-53.252L314.56,280.811z"/>
			<path style="opacity:0.4;" d="M337.498,297.464l1.434,0.182c0,0-0.086,5.126,0.556,14.222c0,0,0.278,4.344,0.621,9.203
				l2.343-23.167c6.688-3.66,11.15-9.984,11.15-9.984c-9.502,7.283-16.105,9.534-16.105,9.534V297.464z"/>
		</g>
		<path style="fill:#37474F;" d="M361.233,218.623c-2.208-3.116-5.52-4.021-5.52-4.021l1.758,53.326c0,0,12.957-5.798,13.399-9.241
			C371.262,255.629,363.638,222.017,361.233,218.623z"/>
		<path style="fill:#FFA8A7;" d="M317.695,189.696c-0.059-2.21-0.059-5.047,0.004-6.06c0.256-3.946,1.438-5.517,1.438-5.517
			c4.835-6.311,22.53-4.892,23.789-1.344c1.249,3.511,3.728,22.937-1.732,26.391c0.558,3.028,2.129,10.428,2.129,10.428
			c-4.419,4.012-13.654,2.725-13.654,2.725c0.275-1.353-0.965-6.756-1.637-9.51c-3.785,0.454-7.068,0.397-8.138-0.397
			c-0.009,0-0.009,0-0.019-0.01c-0.085-0.066-0.161-0.142-0.217-0.218c-0.822-1.163-1.403-5.613-1.722-10.957
			c-1.003,0.132-2.549,0.266-2.747-0.13C314.969,194.657,316.77,191.344,317.695,189.696z"/>
		<path style="fill:#263238;" d="M327.822,190.061c0,0-0.498-3.474,2.957-3.796c3.454-0.322,5.642,4.114,3.927,7.367
			c-1.715,3.253-3.927,3.457-3.927,3.457s-0.432,3.756-0.037,6.462c0.18,1.234,1.273,2.118,2.519,2.082
			c2.496-0.073,6.991-0.443,10.317-2.066c4.85-2.365,8.161-7.274,9.995-14.253c1.833-6.979,2.129-13.543-3.016-13.78
			c0,0-0.048-1.955,2.839-2.72c0,0-3.213-1.479-4.593,1.202c0,0-0.355-5.125-5.48-6.663c-5.126-1.538-11.473,0.749-16.993,1.971
			c-5.52,1.222-12.796,0.587-13.427,1.376c-0.631,0.789-3.346,16.257,12.041,15.536
			C324.942,186.236,325.654,190.002,327.822,190.061z"/>
		<path style="fill:#F28F8F;" d="M319.895,206.413c1.069,0.795,4.353,0.851,8.138,0.397c0,0,1.363-0.823,2.035-2.035
			C329.755,204.908,323.718,207.52,319.895,206.413z"/>
		<path style="fill:#BA68C8;" d="M314.435,244.287v36.699c0,0,13.109,5.165,25.524,3.335c12.403-1.83,18.969-8.744,18.969-8.744
			s0.556-48.419-0.336-54.302c-0.892-5.894-4.864-8.662-7.898-9.334c-3.034-0.672-7.597,0.591-7.597,0.591
			c-6.37,3.66-13.225,3.034-13.225,3.034c-3.497,1.16-7.311,2.959-10.503,4.2C310.313,223.288,314.435,244.287,314.435,244.287z"/>
		<path style="opacity:0.4;fill:#FFFFFF;" d="M314.435,244.287v36.699c0,0,13.109,5.165,25.524,3.335
			c12.403-1.83,18.969-8.744,18.969-8.744s0.556-48.419-0.336-54.302c-0.892-5.894-4.864-8.662-7.898-9.334
			c-3.034-0.672-7.597,0.591-7.597,0.591c-6.37,3.66-13.225,3.034-13.225,3.034c-3.497,1.16-7.311,2.959-10.503,4.2
			C310.313,223.288,314.435,244.287,314.435,244.287z"/>
		<polygon style="fill:#37474F;" points="290.297,241.82 281.931,216.673 295.248,209.264 296.31,209.512 303.614,234.411 		"/>
		<polygon style="fill:#455A64;" points="291.36,242.069 282.994,216.921 296.31,209.512 304.676,234.66 		"/>
		<polygon style="fill:#FFFFFF;" points="291.651,239.503 284.755,218.739 296.221,212.287 303.116,233.051 		"/>
		<path style="fill:#FFA8A7;" d="M284.281,222.878c0,0,0.644-0.495,0.941,1.287c0.297,1.782,1.98,8.118,5.049,10.148
			c0,0,0.668,0.272,0.693-0.322c0.025-0.594,0.074-2.549,0.668-4.109c0.594-1.559,2.178-2.624,2.921-2.351
			c0.743,0.272-0.074,3.119,0,4.208c0.074,1.089,1.535,3.614,1.609,4.777c0.074,1.163-0.124,2.054,0,2.549s3.49,4.135,3.49,4.135
			l-6.51,8.241c0,0-4.232-5.619-5.322-6.732c-1.089-1.114-2.995-3.292-3.539-5.272c-0.545-1.98-1.609-6.782-1.658-8.49
			C282.573,229.239,282.548,223.423,284.281,222.878z"/>
		<path style="fill:#37474F;" d="M321.952,218.67l4.257-0.594c0,0,3.366,0.198,2.574,10.297
			c-0.792,10.098-10.858,37.422-13.366,40.741c-3.366,4.455-7.228,1.742-8.02,0.717c-0.792-1.025-9.157-10.469-14.256-18.389
			c0,0,1.188-7.475,6.93-8.316l6.732,6.881c0,0,2.057-7.71,4.219-15.989C312.97,226.558,315.022,220.254,321.952,218.67z"/>
	</g>
</g>
</svg>
