<?xml version="1.0" encoding="utf-8"?>
<!-- Generator: Adobe Illustrator 27.5.0, SVG Export Plug-In . SVG Version: 6.00 Build 0)  -->
<svg version="1.1" xmlns="http://www.w3.org/2000/svg" xmlns:xlink="http://www.w3.org/1999/xlink" x="0px" y="0px"
	 viewBox="0 0 500 500" style="enable-background:new 0 0 500 500;" xml:space="preserve">
<g id="Floor">
	<path style="fill:#F5F5F5;" d="M416.051,244.811c-92.308-53.294-241.48-53.293-333.188,0.001
		c-91.714,53.298-91.227,139.704,1.08,192.998c92.313,53.297,241.486,53.297,333.199-0.002
		C508.85,384.515,508.364,298.109,416.051,244.811z"/>
</g>
<g id="Window">
	<g>
		<g>
			<g>
				<g>
					<g>
						<g style="enable-background:new    ;">
							<g>
								<polygon style="fill:#F0F0F0;" points="358.435,43.493 361.554,41.681 361.371,164.409 358.252,166.221 								"/>
							</g>
							<g>
								<polygon style="fill:#F5F5F5;" points="358.252,166.221 361.371,164.409 397.273,185.017 394.154,186.829 								"/>
							</g>
							<g>
								<path style="fill:#E0E0E0;" d="M354.859,37.299l43.077,24.751l-0.206,130.974l-43.077-24.751L354.859,37.299z
									 M394.154,186.829l0.183-122.729l-35.902-20.608l-0.183,122.728L394.154,186.829"/>
							</g>
							<g>
								<polygon style="fill:#F5F5F5;" points="354.859,37.299 357.977,35.486 401.055,60.237 397.936,62.05 								"/>
							</g>
							<g>
								<polygon style="fill:#F0F0F0;" points="397.936,62.05 401.055,60.237 400.849,191.211 397.73,193.024 								"/>
							</g>
						</g>
					</g>
				</g>
				<g>
					<polygon style="fill:#F5F5F5;" points="358.259,78.133 361.378,76.321 394.337,95.279 394.337,98.885 					"/>
					<polygon style="fill:#E0E0E0;" points="358.259,78.133 358.259,78.133 358.259,78.133 394.337,98.885 394.337,103.003 
						358.252,82.271 					"/>
					
						<rect x="376.298" y="67.699" transform="matrix(0.4986 -0.8668 0.8668 0.4986 111.9565 370.5685)" style="fill:#E0E0E0;" width="0" height="41.62"/>
				</g>
			</g>
			<g>
				<g>
					<g>
						<g style="enable-background:new    ;">
							<g>
								<polygon style="fill:#F0F0F0;" points="397.936,66.193 401.055,64.38 400.872,187.109 397.753,188.921 								"/>
							</g>
							<g>
								<polygon style="fill:#F5F5F5;" points="397.753,188.921 400.872,187.109 436.773,207.717 433.655,209.529 								"/>
							</g>
							<g>
								<path style="fill:#E0E0E0;" d="M394.36,59.998l43.077,24.751l-0.206,130.974l-43.077-24.751L394.36,59.998z
									 M433.655,209.529l0.183-122.729l-35.902-20.608l-0.183,122.728L433.655,209.529"/>
							</g>
							<g>
								<polygon style="fill:#F5F5F5;" points="394.36,59.998 397.479,58.186 440.556,82.937 437.437,84.749 								"/>
							</g>
							<g>
								<polygon style="fill:#F0F0F0;" points="437.437,84.749 440.556,82.937 440.35,213.911 437.231,215.723 								"/>
							</g>
						</g>
					</g>
				</g>
				<g>
					<polygon style="fill:#F5F5F5;" points="397.76,100.833 400.879,99.021 433.838,117.978 433.838,121.584 					"/>
					<polygon style="fill:#E0E0E0;" points="397.76,100.833 397.76,100.833 397.76,100.833 433.838,121.584 433.838,125.703 
						397.753,104.971 					"/>
					
						<rect x="415.799" y="90.399" transform="matrix(0.4986 -0.8668 0.8668 0.4986 112.0862 416.1918)" style="fill:#E0E0E0;" width="0" height="41.62"/>
				</g>
			</g>
		</g>
	</g>
</g>
<g id="Shadows">
	<path style="fill:#EBEBEB;" d="M453.611,359.562c-6.828-3.942-17.862-3.942-24.645,0c-6.784,3.942-6.748,10.334,0.08,14.276
		c6.828,3.942,17.862,3.942,24.646,0C460.475,369.895,460.439,363.504,453.611,359.562z"/>
	<path style="fill:#EBEBEB;" d="M390.001,330.252c-30.043-17.345-78.594-17.345-108.442,0.001
		c-26.374,15.327-29.304,39.061-8.91,56.346c-16.455-1.019-33.509,2.116-46.076,9.42c-22.058,12.819-21.941,33.601,0.26,46.419
		c22.203,12.819,58.081,12.819,80.139,0c17.549-10.198,21.045-25.434,10.566-37.694c25.29,3.658,53.124-0.231,72.818-11.677
		C420.204,375.721,420.046,347.599,390.001,330.252z"/>
	<path style="fill:#EBEBEB;" d="M229.061,337.206l-120.164,69.377c-1.241,0.717-2.771,0.717-4.013,0l-8.596-4.963
		c-0.926-0.535-0.926-1.872,0.001-2.406l120.291-69.342c1.245-0.718,2.779-0.715,4.021,0.008l8.464,4.923
		C229.987,335.339,229.985,336.672,229.061,337.206z"/>
	<path style="fill:#EBEBEB;" d="M218.579,321.402L71.858,405.483c-1.279,0.738-2.854,0.738-4.133,0l-8.853-5.111
		c-0.954-0.551-0.954-1.928,0.001-2.479l146.851-84.046c1.282-0.739,2.862-0.736,4.142,0.008l8.717,5.07
		C219.533,319.479,219.531,320.852,218.579,321.402z"/>
</g>
<g id="Speech_bubble">
	<g>
		<g>
			<g>
				<g>
					<g>
						<path style="fill:none;" d="M337.384,131.309c0.001,0.001,0.002,0.002,0.004,0.003
							C337.387,131.311,337.385,131.31,337.384,131.309z"/>
						<path style="fill:#BA68C8;" d="M344.038,130.103c-0.458-0.814-1.124-1.509-1.963-1.99l-31.993-18.68
							c-2.364-1.356-7.96,0.482-7.96,4.282v34.719c0,1.891,1.013,3.636,2.654,4.574l20.823,11.899l0,0l-3.596-2.055l1.727,4.896
							c0.056,0.159,0.219,0.217,0.359,0.177l-0.007,0.02c0.305-0.157,1.663-0.885,2.435-1.396c0.005-0.002,0.009-0.006,0.013-0.009
							c0.016-0.011,0.036-0.023,0.051-0.033l-0.004-0.01c0.024-0.02,0.051-0.033,0.069-0.062l0.424-0.687l9.694,5.877
							c3.954,2.259,7.957-0.749,7.957-4.284v-34.658C344.721,131.761,344.474,130.879,344.038,130.103z"/>
						<path style="opacity:0.2;fill:#FFFFFF;" d="M326.646,166.435c-0.018,0.029-0.045,0.042-0.069,0.062l0.004,0.01
							c-0.016,0.01-0.035,0.023-0.051,0.033c-0.005,0.002-0.008,0.006-0.013,0.008c-0.772,0.511-2.129,1.24-2.435,1.396l0.007-0.02
							c0.066-0.019,0.128-0.052,0.17-0.12l1.672-2.709l-0.331-0.189l0,0l1.471,0.84L326.646,166.435z"/>
						<path style="opacity:0.4;fill:#FFFFFF;" d="M338.798,133.08c-0.342-0.677-0.814-1.285-1.41-1.767
							c-0.001-0.001-0.003-0.002-0.004-0.003c-0.199-0.161-0.412-0.307-0.639-0.437l-31.993-18.68
							c-1.171-0.671-2.63,0.174-2.63,1.523c0-3.8,5.595-5.639,7.96-4.283l31.993,18.68c0.838,0.481,1.505,1.176,1.962,1.99
							L338.798,133.08z"/>
						<path style="opacity:0.2;fill:#FFFFFF;" d="M339.391,170.1v-34.658c0-0.21-0.014-0.418-0.041-0.623
							c-0.081-0.612-0.278-1.196-0.552-1.739l5.239-2.976c0.436,0.775,0.684,1.658,0.684,2.579v34.658
							c0,3.535-4.003,6.543-7.957,4.284C337.935,172.293,339.391,171.448,339.391,170.1z"/>
					</g>
				</g>
			</g>
		</g>
		<path style="fill:#FFFFFF;" d="M327.833,146.145c0.788-1.105,1.135-2.561,1.116-4.18c-0.006-0.472-0.051-0.96-0.117-1.455
			c-0.09-0.67-0.235-1.355-0.428-2.048c-0.339-1.218-0.831-2.446-1.451-3.633c-0.193-0.369-0.396-0.732-0.613-1.09
			c-0.406-0.671-0.842-1.326-1.324-1.939c-0.299-0.38-0.611-0.746-0.936-1.096c-0.975-1.049-2.064-1.952-3.236-2.629
			c-6.266-3.618-10.201,1.908-7.085,9.944l2.581,6.669l4.424,11.43L327.833,146.145z M324.797,139.812L324.797,139.812
			c-0.007,2.53-1.791,3.547-3.993,2.276c-0.55-0.318-1.075-0.748-1.552-1.255c-0.04-0.042-0.074-0.092-0.113-0.136
			c-0.549-0.608-1.022-1.315-1.402-2.064c-0.367-0.723-0.639-1.478-0.784-2.225c-0.079-0.407-0.134-0.811-0.133-1.201v0v0
			c0.007-2.53,1.808-3.537,4.01-2.266c0.551,0.318,1.074,0.748,1.55,1.254c0.32,0.341,0.608,0.724,0.878,1.122
			c0.199,0.293,0.381,0.595,0.546,0.908c0.383,0.725,0.667,1.487,0.829,2.244C324.73,138.925,324.799,139.377,324.797,139.812
			L324.797,139.812z"/>
	</g>
</g>
<g id="Device">
	<g>
		<g>
			<g>
				<path style="fill:#BA68C8;" d="M211.134,36.168l0.01-0.009c-0.928-3.258-7.542-9.452-14.125-9.322
					c-0.238-0.002-1.421,0.119-1.848,0.362L67.316,99.941c-2.173,1.237-3.852,3.094-4.914,5.266
					c-0.806,1.647-1.268,3.468-1.268,5.365v276.559c0,7.045,8.123,13.768,15.75,10.534c0.019-0.008,0.032-0.027,0.051-0.036
					c0.164-0.06,0.33-0.107,0.49-0.198l127.86-72.861c3.818-2.176,6.175-6.232,6.175-10.626V37.501
					C211.461,37.009,211.33,36.567,211.134,36.168z"/>
				<path style="fill:#37474F;" d="M78.97,139.803c0-2.199,1.18-4.228,3.091-5.316l118.714-67.54c2.038-1.16,4.57,0.312,4.57,2.657
					v223.006c0,2.191-1.184,4.228-3.089,5.315L83.541,365.574c-2.038,1.161-4.571-0.311-4.571-2.656V139.803z"/>
				<path style="opacity:0.3;" d="M61.134,110.571v276.559c0,7.045,8.123,13.768,15.75,10.534c0.019-0.008,0.032-0.027,0.051-0.036
					c-1.933,0.7-4.081-0.692-4.081-2.854V118.214c0-2.45,0.754-4.781,2.065-6.754l-12.518-6.254
					C61.596,106.853,61.134,108.674,61.134,110.571z"/>
				<path style="opacity:0.1;fill:#FFFFFF;" d="M197.02,26.838c-0.238-0.002-1.421,0.119-1.848,0.362L67.316,99.941
					c-2.173,1.237-3.852,3.094-4.914,5.266l12.518,6.254c1.041-1.567,2.425-2.913,4.118-3.876l127.854-72.741
					c1.61-0.916,3.509-0.177,4.243,1.325l0.01-0.009C210.216,32.902,203.602,26.708,197.02,26.838z"/>
				<g>
					<g>
						<g>
							<path style="fill:#263238;" d="M157.916,80.512c0.898-0.519,1.642-0.117,1.645,0.915c0.003,1.032-0.736,2.313-1.635,2.831
								l-25.084,14.482c-0.898,0.519-1.623,0.083-1.626-0.949c-0.003-1.032,0.717-2.278,1.615-2.797L157.916,80.512z"/>
						</g>
						<g>
							<path style="fill:#263238;" d="M126.389,98.714c0.898-0.518,1.623-0.106,1.626,0.926c0.003,1.032-0.717,2.301-1.615,2.82
								c-0.898,0.518-1.642,0.094-1.645-0.938C124.752,100.491,125.491,99.232,126.389,98.714z"/>
						</g>
					</g>
					<g>
						<path style="fill:#263238;" d="M142.445,78.406c1.794-1.036,3.242-0.211,3.247,1.851c0.006,2.061-1.432,4.597-3.226,5.633
							c-1.794,1.036-3.28,0.188-3.286-1.873C139.174,81.955,140.652,79.442,142.445,78.406z"/>
					</g>
					<g>
						<path style="fill:#263238;" d="M142.455,338.763c3.654-2.11,6.602-0.43,6.614,3.769c0.012,4.199-2.917,9.364-6.571,11.474
							c-3.654,2.11-6.682,0.383-6.694-3.815C135.792,345.992,138.801,340.872,142.455,338.763z"/>
					</g>
				</g>
			</g>
		</g>
	</g>
</g>
<g id="Screen">
	<g>
		<g>
			<g>
				<g>
					<path style="fill:#455A64;" d="M230.356,47.228l0.009-0.008c-0.843-2.957-6.846-8.579-12.821-8.461
						c-0.216-0.002-1.29,0.108-1.678,0.329L99.814,105.114c-1.973,1.122-3.496,2.809-4.461,4.78
						c-0.732,1.495-1.151,3.148-1.151,4.869v251.03c0,6.395,7.373,12.497,14.296,9.561c0.018-0.007,0.029-0.025,0.047-0.033
						c0.149-0.054,0.3-0.097,0.445-0.18l116.058-66.135c3.465-1.975,5.605-5.656,5.605-9.645V48.438
						C230.652,47.991,230.533,47.591,230.356,47.228z"/>
					<path style="opacity:0.1;fill:#FFFFFF;" d="M94.202,114.763v251.03c0,6.395,7.373,12.497,14.296,9.561
						c0.018-0.007,0.029-0.025,0.047-0.033c-1.754,0.636-3.704-0.628-3.704-2.591v-251.03c0-2.224,0.685-4.34,1.875-6.131
						l-11.362-5.677C94.622,111.388,94.202,113.041,94.202,114.763z"/>
					<path style="opacity:0.2;fill:#FFFFFF;" d="M217.544,38.759c-0.216-0.002-1.29,0.108-1.678,0.329L99.814,105.114
						c-1.973,1.122-3.496,2.809-4.461,4.78l11.362,5.677c0.945-1.422,2.201-2.644,3.737-3.518l116.052-66.026
						c1.462-0.832,3.185-0.161,3.852,1.202l0.009-0.008C229.522,44.263,223.519,38.641,217.544,38.759z"/>
				</g>
			</g>
		</g>
		<path style="fill:#455A64;" d="M230.356,47.228c-0.667-1.363-2.39-2.034-3.852-1.202l-116.052,66.026
			c-1.536,0.874-2.792,2.096-3.737,3.518c-1.19,1.791-1.874,3.907-1.874,6.131v251.03c0,1.963,1.95,3.227,3.704,2.591
			c0.149-0.054,0.3-0.097,0.445-0.18l116.057-66.135c3.465-1.975,5.605-5.656,5.605-9.645V48.438
			C230.652,47.991,230.533,47.59,230.356,47.228z"/>
		<path style="fill:#455A64;" d="M110.581,137.307c0-1.031,0.317-2.053,0.916-2.955c0.485-0.729,1.088-1.303,1.793-1.703
			l111.623-63.506v226.321c0,1.922-1.037,3.706-2.706,4.657l-111.625,63.61V137.307z"/>
		<path style="opacity:0.3;" d="M110.581,137.307c0-1.031,0.317-2.053,0.916-2.955c0.485-0.729,1.088-1.303,1.793-1.703
			l111.623-63.506v226.321c0,1.922-1.037,3.706-2.706,4.657l-111.625,63.61V137.307z"/>
		<g>
			<polygon style="fill:none;" points="114.299,120.211 114.31,124.272 114.31,124.272 114.299,120.211 113.342,120.763 
				113.342,120.763 			"/>
			<polygon style="fill:none;" points="111.127,126.11 111.127,126.11 111.121,123.766 110.172,124.314 110.172,124.314 
				111.12,123.766 			"/>
			<polygon style="fill:none;" points="111.753,122.541 111.753,122.541 112.453,122.137 			"/>
			<polygon style="fill:none;" points="112.462,125.339 112.719,125.191 112.71,121.989 112.709,121.989 112.718,125.191 			"/>
			<polygon style="fill:none;" points="213.819,62.065 213.832,66.813 213.832,66.813 213.819,62.065 206.802,66.116 
				206.802,66.116 			"/>
			<polygon style="fill:none;" points="225.066,58.702 225.07,60.325 217.329,64.794 217.329,64.794 225.07,60.325 225.066,58.702 
				225.619,58.383 225.615,56.88 225.614,56.88 225.619,58.383 			"/>
			<polygon style="fill:none;" points="126.273,117.366 126.273,117.365 126.26,112.617 118.519,117.087 118.519,117.087 
				126.26,112.618 			"/>
			<polygon style="fill:none;" points="177.773,82.876 177.786,87.624 177.786,87.624 177.773,82.876 158.786,93.838 
				158.786,93.838 			"/>
			<polygon style="fill:none;" points="114.932,119.157 114.932,119.157 115.888,118.605 			"/>
			<polygon style="fill:none;" points="115.514,123.578 115.902,123.354 115.888,118.605 115.902,123.354 			"/>
			<polygon style="fill:none;" points="128.382,111.392 128.382,111.392 130.131,110.382 			"/>
			<polygon style="fill:#BA68C8;" points="218.148,60.52 218.156,63.362 221.757,61.283 221.749,58.441 			"/>
			<path style="fill:#FFFFFF;" d="M225.057,55.577l-7.741,4.469l0.005,1.623l0.004,1.503l0.005,1.623l7.741-4.469l-0.005-1.623
				l0.553-0.319l-0.004-1.503l-0.202,0.117l-0.35,0.202L225.057,55.577z M221.757,61.283l-3.602,2.079l-0.008-2.842v0l3.602-2.079
				L221.757,61.283L221.757,61.283z"/>
			<polygon style="fill:#FFFFFF;" points="158.786,93.838 158.8,98.586 177.786,87.624 177.773,82.876 			"/>
			<polygon style="fill:#FFFFFF;" points="206.802,66.116 206.816,70.864 213.832,66.813 213.819,62.065 			"/>
			<polygon style="fill:#FFFFFF;" points="113.342,120.763 113.354,124.825 114.31,124.272 114.299,120.211 			"/>
			<polygon style="fill:#FFFFFF;" points="128.395,116.14 132.535,113.75 132.521,109.002 132.521,109.002 130.131,110.382 
				128.382,111.392 128.382,111.392 			"/>
			<polygon style="fill:#FFFFFF;" points="118.532,121.835 126.273,117.366 126.273,117.366 126.26,112.618 118.519,117.087 
				118.518,117.087 			"/>
			<polygon style="fill:#FFFFFF;" points="114.945,123.906 115.514,123.578 115.902,123.354 115.888,118.605 114.932,119.157 
				114.932,119.158 			"/>
			<polygon style="fill:#FFFFFF;" points="111.762,125.744 112.462,125.339 112.718,125.191 112.709,121.989 112.709,121.989 
				112.453,122.137 111.753,122.541 111.753,122.541 			"/>
			<polygon style="fill:#FFFFFF;" points="110.178,126.658 111.127,126.11 111.127,126.11 111.12,123.766 110.172,124.314 
				110.171,124.314 			"/>
		</g>
		<g>
			<path style="fill:#455A64;" d="M215.251,212.783l9.661-5.513v-4.561l-9.775,5.58l-0.524-21.178l10.299-6.209v-4.565l-10.413,6.28
				l-0.364-14.809l10.778-7.084v-4.575l-10.892,7.159l-0.383-15.359l-4.719-17.052l15.993-14.521v-7.921l-17.234,15.649
				l-2.673-24.401l19.907-15.359V79.71l-20.378,15.72l-1.512-13.834l-3.997,2.274l1.69,15.436l-18.614,28.237l-15.099-25.454
				l-7.428,4.226l3.742,6.313l-7.813,9.276l-2.899-5.609L136.55,131.32l1.499,15.982l-27.469,15.859v4.559l31.859-18.394
				l-1.615-17.221l9.637-9.021l3.199,6.183l11.459-13.605l2.526,4.264l-36.958,57.42l-20.107,18.009v4.736l20.144-18.036
				l12.475,16.784l-10.565,17.984l-22.054,23v8.213l11.855-12.36l4.027,14.822l0.055,19.382l-15.937,7.69v4.582l15.754-7.601
				l-2.119,26.031l-6.379,8.892l-0.899,23.137l-6.357,4.135v7.623l56.56-36.8L166.263,332l3.968-2.261l1.23-34.254l20.94-12.453
				l1.873,33.005l6.628-3.777l-0.815-14.354l24.825-16.178v-4.574l-25.076,16.337l-1.53-26.827l18.854-10.885l-1.368-24.401
				l9.12-4.401v-4.582l-9.311,4.493L215.251,212.783z M201.272,104.365l2.544,23.243l-14.083,12.793l-5.789-9.754L201.272,104.365z
				 M162.595,233.929l-5.829,3.365l-5.353,3.09l-3.357-22.281l14.205-11.637l3.843,25.437L162.595,233.929z M166.741,236.094
				l2.028,13.396l-4.896,2.361l-0.962-13.546L166.741,236.094z M147.43,213.954l-1.396-9.284l20.964-35.707l0.879-0.796l1.598,9.037
				l-6.332,6.633l1.517,3.348l15.087-15.816l-1.517-3.348l-5.007,5.253l-1.52-8.583l13.286-12.066l1.661,29.181L147.43,213.954z
				 M186.903,186.27l3.016,53.015l-6.14,2.963l-5.34-49.045L186.903,186.27z M160.248,137.415l4.468,6.271l-14.152,21.923
				l-4.473-6.193L160.248,137.415z M134.21,177.872l8.814-13.693l6.513,9.006l20.279-31.416l-6.501-9.116l6.18-9.606l13.779,23.218
				l-18.919,17.18l-0.797,0.72l-17.448,29.713L134.21,177.872z M126.136,231.814l10.198-10.632l6.225-10.604l5.47,36.319
				l8.749-5.051l2.153-1.243l0.943,13.181l-29.401,14.189l-0.045-18.128l7.68-5.885l-0.655-4.126l-7.567,5.8L126.136,231.814z
				 M134.741,321.025l-13.82,8.992l0.788-20.334l6.278-8.745l2.303-28.301l6.699-3.231L134.741,321.025z M167.416,299.771
				l-28.691,18.667l2.221-50.939l28.116-13.57L167.416,299.771z M166.142,203.281l8.404-6.885l5.205,47.795l-6.919,3.337
				L166.142,203.281z M171.627,290.816l1.391-38.796l17.151-8.28l1.982,34.877L171.627,290.816z M191.491,146.724l13.625-12.371
				l4.574,16.54l0.37,15.024l-16.846,11.074L191.491,146.724z M193.466,181.399l16.709-10.982l0.363,14.59l-16.307,9.832
				L193.466,181.399z M194.481,199.255l16.17-9.753l0.519,21.052l-15.548,8.874L194.481,199.255z M195.874,223.848l15.411-8.795
				l0.343,13.753l-15.058,7.27L195.874,223.848z M198.056,262.25l-1.229-21.723l14.974-7.228l1.142,20.356L198.056,262.25z"/>
		</g>
		<g style="opacity:0.3;">
			<path style="fill:#FFFFFF;" d="M215.251,212.783l9.661-5.513v-4.561l-9.775,5.58l-0.524-21.178l10.299-6.209v-4.565l-10.413,6.28
				l-0.364-14.809l10.778-7.084v-4.575l-10.892,7.159l-0.383-15.359l-4.719-17.052l15.993-14.521v-7.921l-17.234,15.649
				l-2.673-24.401l19.907-15.359V79.71l-20.378,15.72l-1.512-13.834l-3.997,2.274l1.69,15.436l-18.614,28.237l-15.099-25.454
				l-7.428,4.226l3.742,6.313l-7.813,9.276l-2.899-5.609L136.55,131.32l1.499,15.982l-27.469,15.859v4.559l31.859-18.394
				l-1.615-17.221l9.637-9.021l3.199,6.183l11.459-13.605l2.526,4.264l-36.958,57.42l-20.107,18.009v4.736l20.144-18.036
				l12.475,16.784l-10.565,17.984l-22.054,23v8.213l11.855-12.36l4.027,14.822l0.055,19.382l-15.937,7.69v4.582l15.754-7.601
				l-2.119,26.031l-6.379,8.892l-0.899,23.137l-6.357,4.135v7.623l56.56-36.8L166.263,332l3.968-2.261l1.23-34.254l20.94-12.453
				l1.873,33.005l6.628-3.777l-0.815-14.354l24.825-16.178v-4.574l-25.076,16.337l-1.53-26.827l18.854-10.885l-1.368-24.401
				l9.12-4.401v-4.582l-9.311,4.493L215.251,212.783z M201.272,104.365l2.544,23.243l-14.083,12.793l-5.789-9.754L201.272,104.365z
				 M162.595,233.929l-5.829,3.365l-5.353,3.09l-3.357-22.281l14.205-11.637l3.843,25.437L162.595,233.929z M166.741,236.094
				l2.028,13.396l-4.896,2.361l-0.962-13.546L166.741,236.094z M147.43,213.954l-1.396-9.284l20.964-35.707l0.879-0.796l1.598,9.037
				l-6.332,6.633l1.517,3.348l15.087-15.816l-1.517-3.348l-5.007,5.253l-1.52-8.583l13.286-12.066l1.661,29.181L147.43,213.954z
				 M186.903,186.27l3.016,53.015l-6.14,2.963l-5.34-49.045L186.903,186.27z M160.248,137.415l4.468,6.271l-14.152,21.923
				l-4.473-6.193L160.248,137.415z M134.21,177.872l8.814-13.693l6.513,9.006l20.279-31.416l-6.501-9.116l6.18-9.606l13.779,23.218
				l-18.919,17.18l-0.797,0.72l-17.448,29.713L134.21,177.872z M126.136,231.814l10.198-10.632l6.225-10.604l5.47,36.319
				l8.749-5.051l2.153-1.243l0.943,13.181l-29.401,14.189l-0.045-18.128l7.68-5.885l-0.655-4.126l-7.567,5.8L126.136,231.814z
				 M134.741,321.025l-13.82,8.992l0.788-20.334l6.278-8.745l2.303-28.301l6.699-3.231L134.741,321.025z M167.416,299.771
				l-28.691,18.667l2.221-50.939l28.116-13.57L167.416,299.771z M166.142,203.281l8.404-6.885l5.205,47.795l-6.919,3.337
				L166.142,203.281z M171.627,290.816l1.391-38.796l17.151-8.28l1.982,34.877L171.627,290.816z M191.491,146.724l13.625-12.371
				l4.574,16.54l0.37,15.024l-16.846,11.074L191.491,146.724z M193.466,181.399l16.709-10.982l0.363,14.59l-16.307,9.832
				L193.466,181.399z M194.481,199.255l16.17-9.753l0.519,21.052l-15.548,8.874L194.481,199.255z M195.874,223.848l15.411-8.795
				l0.343,13.753l-15.058,7.27L195.874,223.848z M198.056,262.25l-1.229-21.723l14.974-7.228l1.142,20.356L198.056,262.25z"/>
		</g>
	</g>
</g>
<g id="Location_3">
	<g>
		<g>
			<g>
				<path style="fill:#BA68C8;" d="M247.864,221.15c0.902-0.521,1.63-0.097,1.632,0.93l0.063,22.31
					c0.003,1.027-0.72,2.289-1.622,2.809l-52.794,30.48l-0.074-26.049L247.864,221.15z"/>
			</g>
			<g style="opacity:0.3;">
				<path style="fill:#FFFFFF;" d="M247.864,221.15c0.902-0.521,1.63-0.097,1.632,0.93l0.063,22.31
					c0.003,1.027-0.72,2.289-1.622,2.809l-52.794,30.48l-0.074-26.049L247.864,221.15z"/>
			</g>
			<g>
				<g>
					<polygon style="fill:#FFFFFF;" points="245.931,239.63 245.937,241.424 207.047,263.877 207.042,262.083 					"/>
				</g>
				<g>
					<polygon style="fill:#FFFFFF;" points="222.869,256.775 222.874,258.569 207.058,267.701 207.053,265.907 					"/>
				</g>
				<g>
					<polygon style="fill:#FFFFFF;" points="245.921,235.815 245.926,237.609 207.036,260.062 207.031,258.268 					"/>
				</g>
				<g>
					<polygon style="fill:#FFFFFF;" points="245.91,231.991 245.915,233.785 207.025,256.238 207.02,254.444 					"/>
				</g>
				<g>
					<polygon style="fill:#FFFFFF;" points="235.508,232.37 235.518,235.958 207.014,252.415 207.004,248.827 					"/>
				</g>
			</g>
		</g>
		<g>
			<g>
				<path style="fill:#BA68C8;" d="M180.93,242.669c6.183-3.57,12.374-4.429,17.108-1.731c8.723,4.971,9.546,20.427,1.907,35.895
					l-18.812,38.109l-18.959-16.303c-7.701-6.611-6.969-22.965,1.698-37.976C168.573,252.52,174.747,246.239,180.93,242.669z"/>
			</g>
			<g>
				
					<ellipse transform="matrix(0.5025 -0.8646 0.8646 0.5025 -143.6351 291.0087)" style="fill:#455A64;" cx="181.03" cy="270.304" rx="28.958" ry="16.773"/>
			</g>
			<g>
				<path style="fill:#BA68C8;" d="M181.097,293.91c5.777-3.336,10.981-9.094,14.701-15.66c-2.038-1.664-4.735-2.323-7.329-1.734
					l-2.752,0.625l-8.732,1.868l-7.844,5.905c-2.773,2.088-4.478,5.299-4.654,8.766l-0.006,0.121
					C168.236,297.514,174.283,297.844,181.097,293.91z"/>
				<path style="opacity:0.2;" d="M181.097,293.91c5.777-3.336,10.981-9.094,14.701-15.66c-2.038-1.664-4.735-2.323-7.329-1.734
					l-2.752,0.625l-8.732,1.868l-7.844,5.905c-2.773,2.088-4.478,5.299-4.654,8.766l-0.006,0.121
					C168.236,297.514,174.283,297.844,181.097,293.91z"/>
				<g>
					<path style="fill:#263238;" d="M193.23,269.415c1.315-0.944,2.259-2.391,2.593-3.975c0.334-1.584,0.056-3.289-0.765-4.684
						c0.712-0.342,1.404-0.909,1.728-1.63c0.312-0.694,0.157-1.571-0.373-2.116c-0.531-0.545-1.404-0.723-2.106-0.429
						c0.438-1.077-0.067-2.541-1.069-3.129c-1.003-0.588-2.419-0.326-3.145,0.582c0.048-0.74-0.465-1.452-1.169-1.683
						c-0.704-0.231-1.479-0.104-2.18,0.137c-0.701,0.24-1.363,0.589-2.069,0.813c-1.193,0.378-2.467,0.386-3.716,0.474
						c-1.249,0.088-2.538,0.277-3.589,0.957c-1.051,0.68-1.979,2.27-1.412,3.64c-0.354-0.449-0.919-0.771-1.491-0.791
						c-0.571-0.019-1.146,0.225-1.529,0.649c0.782,0.484,1.538,1.006,2.319,1.49c-0.787-0.354-1.96,0.201-2.385,0.951
						c-0.426,0.75-0.446,1.657-0.42,2.519c0.096,3.275,0.693,6.532,1.728,9.641c0.535,1.607,1.307,3.31,2.83,4.052L193.23,269.415z"
						/>
					<g>
						<path style="fill:#FFA8A7;" d="M184.941,277.154l-0.344,3.843c-0.027,0.299,0.068,0.587,0.217,0.847
							c0.432,0.753,0.298,1.956-0.339,2.511c-0.464,0.404-1.103,0.538-1.717,0.582c-2.37,0.172-4.788-0.85-6.351-2.45
							c-0.341-0.349-0.516-0.828-0.503-1.316l0.252-9.745L184.941,277.154z"/>
						<path style="opacity:0.3;" d="M176.931,271.931l8.01,5.223l-0.305,3.408c-1.862-0.436-3.736-0.974-5.209-2.172
							C177.553,276.865,176.577,274.318,176.931,271.931z"/>
					</g>
					<g>
						<path style="fill:#FFA8A7;" d="M193.673,261.496c0.588,4.442,0.293,9-0.862,13.33c-0.253,0.948-0.552,1.897-1.058,2.738
							c-0.506,0.841-1.241,1.575-2.16,1.919c-1.131,0.423-2.388,0.219-3.577,0.009c-2.174-0.383-4.405-0.787-6.295-1.93
							c-1.889-1.143-3.387-3.209-3.204-5.41c-1.1,0.632-2.492,0.798-3.611,0.2c-1.119-0.598-1.894-1.796-1.98-3.061
							c-0.084-1.232,0.628-2.605,1.839-2.849c0.74-0.149,1.513,0.147,2.105,0.615c0.592,0.468,1.034,1.095,1.467,1.713
							c0.207,0.294,0.423,0.597,0.731,0.782c0.308,0.185,0.736,0.222,1.01-0.012c0.299-0.255,0.305-0.707,0.287-1.099l-0.128-2.79
							c-0.02-0.439,0.227-0.839,0.619-1.038c0.568-0.289,1.002-0.821,1.25-1.438c0.215-0.534,0.307-1.103,0.353-1.678
							c0.038-0.464,0.509-0.759,0.941-0.585C185.144,262.421,189.812,262.488,193.673,261.496z"/>
						<g>
							<polygon style="fill:#F28F8F;" points="187.537,268.261 190.046,272.484 187.055,273.046 							"/>
							<path style="fill:#F28F8F;" d="M184.172,274.501c0.758,0.368,1.515,0.737,2.273,1.105c-0.331,0.516-1.164,0.741-1.723,0.49
								C184.162,275.845,184.006,275.092,184.172,274.501z"/>
							<path style="opacity:0.3;" d="M184.172,274.501c0.758,0.368,1.515,0.737,2.273,1.105c-0.331,0.516-1.164,0.741-1.723,0.49
								C184.162,275.845,184.006,275.092,184.172,274.501z"/>
							<path style="fill:#F28F8F;" d="M185.511,276.171c-0.273,0.048-0.555,0.031-0.789-0.074c-0.439-0.197-0.627-0.704-0.608-1.198
								c0.323,0.002,0.646,0.107,0.896,0.311C185.297,275.445,185.474,275.801,185.511,276.171z"/>
							<path style="fill:#263238;" d="M183.206,268.429c-0.048,0.472,0.297,0.893,0.769,0.941c0.472,0.048,0.893-0.296,0.941-0.768
								c0.048-0.472-0.297-0.893-0.769-0.941C183.675,267.613,183.253,267.957,183.206,268.429z"/>
							<path style="fill:#263238;" d="M190.41,268.876c-0.048,0.472,0.296,0.893,0.768,0.941c0.472,0.047,0.893-0.297,0.941-0.769
								c0.048-0.472-0.297-0.893-0.769-0.941C190.878,268.06,190.457,268.404,190.41,268.876z"/>
							<path style="fill:#263238;" d="M191.584,265.558c0.587,0.5,1.175,1.001,1.763,1.501c0.233-0.431,0.111-1.032-0.235-1.378
								C192.766,265.334,192.015,265.326,191.584,265.558z"/>
							<path style="fill:#263238;" d="M184.275,264.717c-0.676,0.373-1.351,0.746-2.027,1.119c-0.142-0.468,0.097-1.034,0.505-1.304
								S183.9,264.404,184.275,264.717z"/>
						</g>
					</g>
				</g>
			</g>
		</g>
	</g>
</g>
<g id="Location_2">
	<g>
		<g>
			<g>
				<path style="fill:#BA68C8;" d="M187.664,159.766c0.902-0.521,1.63-0.097,1.632,0.93l0.063,22.31
					c0.003,1.028-0.72,2.289-1.622,2.809l-52.794,30.48l-0.074-26.049L187.664,159.766z"/>
			</g>
			<g style="opacity:0.3;">
				<path style="fill:#FFFFFF;" d="M187.664,159.766c0.902-0.521,1.63-0.097,1.632,0.93l0.063,22.31
					c0.003,1.028-0.72,2.289-1.622,2.809l-52.794,30.48l-0.074-26.049L187.664,159.766z"/>
			</g>
			<g>
				<g>
					<polygon style="fill:#FFFFFF;" points="185.732,178.247 185.737,180.041 146.847,202.494 146.842,200.7 					"/>
				</g>
				<g>
					<polygon style="fill:#FFFFFF;" points="162.67,195.392 162.675,197.186 146.858,206.318 146.853,204.523 					"/>
				</g>
				<g>
					<polygon style="fill:#FFFFFF;" points="185.721,174.432 185.726,176.226 146.836,198.679 146.831,196.885 					"/>
				</g>
				<g>
					<polygon style="fill:#FFFFFF;" points="185.71,170.608 185.715,172.402 146.825,194.855 146.82,193.061 					"/>
				</g>
				<g>
					<polygon style="fill:#FFFFFF;" points="175.308,170.987 175.319,174.574 146.814,191.031 146.804,187.444 					"/>
				</g>
			</g>
		</g>
		<g>
			<g>
				<path style="fill:#BA68C8;" d="M120.729,180.029c6.183-3.57,12.374-4.429,17.108-1.731c8.723,4.971,9.546,20.427,1.907,35.895
					l-18.812,38.109l-18.959-16.303c-7.701-6.611-6.969-22.965,1.698-37.976C108.372,189.879,114.546,183.599,120.729,180.029z"/>
			</g>
			<g>
				
					<ellipse transform="matrix(0.5025 -0.8646 0.8646 0.5025 -119.4287 207.7921)" style="fill:#455A64;" cx="120.829" cy="207.664" rx="28.958" ry="16.773"/>
			</g>
			<g>
				<path style="fill:#FFFFFF;" d="M120.896,231.269c5.994-3.461,11.364-9.534,15.106-16.408c-2.342-1.277-5.115-1.711-7.83-1.094
					l-4.68,1.063l-9.617,2.058l-8.316,6.261c-1.505,1.133-2.808,2.47-3.932,3.935C104.58,234.324,112.1,236.348,120.896,231.269z"/>
				<g>
					<path style="fill:#FFA8A7;" d="M108.853,204.7c0.263-0.608,0.741-1.132,1.338-1.4c0.13-0.058,0.258-0.119,0.399-0.15
						c0.798-0.171,1.649,0.168,2.226,0.744c0.577,0.576,0.909,1.36,1.085,2.157c0.176,0.797,0.209,1.617,0.27,2.43
						c0.109,1.443,0.349,2.87,0.669,4.282c0.353,1.555,1.363,2.88,2.773,3.623l0.095,0.05c1.894,1,4.211,1.552,6.474,1.72
						l-0.01,1.92v0.537c1.785,2.431,2.284,7.074-2.421,5.687c-4.705-1.387-7.771-4.518-7.771-7.595
						c-0.027-1.298-0.063-2.967-0.096-4.46c-0.044-2.008-0.083-3.69-0.083-3.69c-0.375,0.49-1.05,0.814-1.718,0.899
						c-0.313,0.039-0.624,0.031-0.903-0.046c-0.873-0.242-1.583-0.918-2.009-1.717c-0.426-0.799-0.593-1.713-0.643-2.618
						C108.485,206.27,108.533,205.44,108.853,204.7z"/>
					<path style="opacity:0.3;" d="M108.853,204.7c0.263-0.608,0.741-1.132,1.338-1.4c0.13-0.058,0.258-0.119,0.399-0.15
						c0.798-0.171,1.649,0.168,2.226,0.744c0.577,0.576,0.909,1.36,1.085,2.157c0.176,0.797,0.209,1.617,0.27,2.43
						c0.109,1.443,0.349,2.87,0.669,4.282c0.353,1.555,1.363,2.88,2.773,3.623l0.095,0.05c1.894,1,4.211,1.552,6.474,1.72
						l-0.01,1.92v0.537c1.785,2.431,2.284,7.074-2.421,5.687c-4.705-1.387-7.771-4.518-7.771-7.595
						c-0.027-1.298-0.063-2.967-0.096-4.46c-0.044-2.008-0.083-3.69-0.083-3.69c-0.375,0.49-1.05,0.814-1.718,0.899
						c-0.313,0.039-0.624,0.031-0.903-0.046c-0.873-0.242-1.583-0.918-2.009-1.717c-0.426-0.799-0.593-1.713-0.643-2.618
						C108.485,206.27,108.533,205.44,108.853,204.7z"/>
					<path style="fill:#263238;" d="M110.381,196.204c1.423-1.773,3.701-1.963,3.701-1.963l19.327,1.793
						c2.228,4.723,0.449,7.845,0.449,7.845c0.301,7.203,0.55,11.783-2.617,13.299c-1.725,0.826-4.352,1.179-7.059,0.979
						c-2.263-0.167-4.58-0.72-6.474-1.72l-0.103-0.054c-1.414-0.746-2.418-2.079-2.77-3.638c-0.317-1.405-0.556-2.825-0.664-4.262
						c-0.061-0.813-0.094-1.633-0.27-2.43c-0.176-0.797-0.507-1.58-1.085-2.157c-0.577-0.576-1.429-0.915-2.226-0.744
						c-0.141,0.03-0.269,0.091-0.399,0.15C109.641,200.101,109.479,197.327,110.381,196.204z"/>
					<path style="fill:#FFA8A7;" d="M117.458,196.755c0.424,1.308,0.166,2.739-0.254,4.049c-0.42,1.309-0.999,2.576-1.228,3.932
						c-0.227,1.339-0.09,2.761,0.531,3.969c0.62,1.208,1.753,2.176,3.081,2.458c2.075,0.441,4.104-0.771,6.187-1.174
						c1.934-0.375,4.076,0.032,5.817,1.029c0.656,0.376,1.475-0.048,1.521-0.804c0.247-4.146,0.244-10.642-0.37-13.695
						L117.458,196.755z"/>
					<path style="opacity:0.3;" d="M117.458,196.755c0.424,1.308,0.166,2.739-0.254,4.049c-0.42,1.309-0.999,2.576-1.228,3.932
						c-0.227,1.339-0.09,2.761,0.531,3.969c0.62,1.208,1.753,2.176,3.081,2.458c2.075,0.441,4.104-0.771,6.187-1.174
						c1.934-0.375,4.076,0.032,5.817,1.029c0.656,0.376,1.475-0.048,1.521-0.804c0.247-4.146,0.244-10.642-0.37-13.695
						L117.458,196.755z"/>
					<path style="fill:#263238;" d="M132.415,193c0.801-0.556,1.602-1.113,2.402-1.669c0.547,1.576,0.129,3.431-0.919,4.73
						c-1.047,1.299-2.611,2.112-4.235,2.494c-1.625,0.381-3.317,0.362-4.98,0.227c-2.433-0.197-4.846-0.638-7.192-1.314
						c-1.037-0.299-2.111-0.675-2.826-1.483c-1.045-1.182-1.013-3.083-0.148-4.403c0.865-1.32,2.409-2.089,3.973-2.301
						c1.592-0.216,3.203,0.084,4.782,0.377c1.579,0.293,3.195,0.581,4.783,0.343c1.589-0.238,3.174-1.1,3.857-2.554
						C133.267,189.643,132.415,193,132.415,193z"/>
					<g>
						<polygon style="fill:#F28F8F;" points="126.352,204.106 129.876,208.375 126.643,209.518 						"/>
						<polygon style="opacity:0.3;" points="126.352,204.106 129.876,208.375 126.643,209.518 						"/>
						<path style="fill:#F28F8F;" d="M123.684,211.637c0.907,0.279,1.815,0.558,2.722,0.837c-0.279,0.632-1.168,1.027-1.835,0.844
							C123.905,213.136,123.601,212.324,123.684,211.637z"/>
						<path style="opacity:0.3;" d="M123.684,211.637c0.907,0.279,1.815,0.558,2.722,0.837c-0.279,0.632-1.168,1.027-1.835,0.844
							C123.905,213.136,123.601,212.324,123.684,211.637z"/>
						<path style="fill:#F28F8F;" d="M125.463,213.265c-0.296,0.101-0.613,0.13-0.892,0.054c-0.523-0.144-0.819-0.675-0.884-1.229
							c0.36-0.054,0.738,0.007,1.052,0.192C125.1,212.494,125.358,212.86,125.463,213.265z"/>
						<path style="fill:#263238;" d="M121.557,205.042c0.028,0.534,0.485,0.944,1.019,0.915c0.534-0.029,0.944-0.485,0.915-1.019
							c-0.029-0.534-0.485-0.944-1.019-0.915C121.938,204.052,121.528,204.508,121.557,205.042z"/>
						<path style="fill:#263238;" d="M129.657,204.293c0.028,0.534,0.485,0.943,1.019,0.915c0.534-0.029,0.943-0.485,0.915-1.019
							c-0.029-0.534-0.485-0.944-1.019-0.915S129.628,203.759,129.657,204.293z"/>
						<path style="fill:#263238;" d="M130.391,200.395c0.741,0.456,1.482,0.911,2.223,1.367c0.185-0.52-0.055-1.169-0.5-1.494
							C131.669,199.941,130.831,200.062,130.391,200.395z"/>
						<path style="fill:#263238;" d="M122.106,200.723c-0.688,0.533-1.376,1.065-2.063,1.597c-0.239-0.497-0.071-1.168,0.337-1.54
							C120.788,200.41,121.633,200.439,122.106,200.723z"/>
					</g>
					<path style="opacity:0.2;" d="M116.405,216.306c-0.535-0.687-0.926-1.495-1.127-2.341c0.504,1.023,1.308,1.881,2.335,2.422
						c0.032,0.017,0.064,0.034,0.095,0.05c1.894,0.999,4.211,1.552,6.474,1.72l-0.009,1.656c-1.302-0.138-2.595-0.363-3.826-0.803
						C118.827,218.466,117.398,217.58,116.405,216.306z"/>
				</g>
			</g>
		</g>
	</g>
</g>
<g id="Location_1">
	<g>
		<g>
			<g>
				<path style="fill:#BA68C8;" d="M274.398,67.378c0.902-0.521,1.63-0.097,1.632,0.93l0.063,22.31
					c0.003,1.027-0.72,2.289-1.622,2.809l-52.794,30.48l-0.074-26.049L274.398,67.378z"/>
			</g>
			<g style="opacity:0.3;">
				<path style="fill:#FFFFFF;" d="M274.398,67.378c0.902-0.521,1.63-0.097,1.632,0.93l0.063,22.31
					c0.003,1.027-0.72,2.289-1.622,2.809l-52.794,30.48l-0.074-26.049L274.398,67.378z"/>
			</g>
			<g>
				<g>
					<polygon style="fill:#FFFFFF;" points="272.466,85.858 272.471,87.652 233.581,110.105 233.576,108.312 					"/>
				</g>
				<g>
					<polygon style="fill:#FFFFFF;" points="249.404,103.003 249.409,104.797 233.592,113.929 233.587,112.135 					"/>
				</g>
				<g>
					<polygon style="fill:#FFFFFF;" points="272.455,82.043 272.46,83.837 233.571,106.29 233.565,104.496 					"/>
				</g>
				<g>
					<polygon style="fill:#FFFFFF;" points="272.444,78.219 272.45,80.013 233.56,102.467 233.555,100.673 					"/>
				</g>
				<g>
					<polygon style="fill:#FFFFFF;" points="262.043,78.598 262.053,82.186 233.549,98.643 233.539,95.055 					"/>
				</g>
			</g>
		</g>
		<g>
			<g>
				<path style="fill:#BA68C8;" d="M206.059,91.461c6.183-3.57,12.374-4.429,17.108-1.731c8.723,4.971,9.546,20.427,1.907,35.894
					l-18.812,38.11l-18.959-16.303c-7.701-6.611-6.969-22.965,1.698-37.976C193.702,101.311,199.876,95.031,206.059,91.461z"/>
			</g>
			<g>
				
					<ellipse transform="matrix(0.5025 -0.8646 0.8646 0.5025 -0.3977 237.5006)" style="fill:#455A64;" cx="206.159" cy="119.096" rx="28.958" ry="16.773"/>
			</g>
			<path style="fill:#BA68C8;" d="M206.226,142.701c5.242-3.026,10.003-8.054,13.622-13.862c-2.493-1.218-5.319-1.676-8.114-1.235
				l-2.715,0.429l-8.766,1.656l-6.596,3.905c-2.638,1.562-4.66,3.961-5.763,6.796C191.317,146.067,198.245,147.309,206.226,142.701z
				"/>
			<path style="opacity:0.2;fill:#FFFFFF;" d="M206.226,142.701c5.242-3.026,10.003-8.054,13.622-13.862
				c-2.493-1.218-5.319-1.676-8.114-1.235l-2.715,0.429l-8.766,1.656l-6.596,3.905c-2.638,1.562-4.66,3.961-5.763,6.796
				C191.317,146.067,198.245,147.309,206.226,142.701z"/>
			<g>
				<path style="fill:#263238;" d="M190.858,112.136c0.041,0.514,0.083,1.028,0.109,1.542c0.068,1.353,0.01,2.746-0.51,3.996
					c-0.609,1.463-1.819,2.655-2.207,4.192c-0.357,1.413,0.085,3.001,1.121,4.026c1.037,1.025,2.629,1.45,4.038,1.077
					c-0.281-1.081-0.438-2.173-0.392-3.29c0.128,1.49,1.614,2.653,3.022,3.154c1.409,0.501,2.946,0.448,4.44,0.389
					c1.753-0.069,3.506-0.138,5.26-0.207c2.042-0.08,4.084-0.161,6.126-0.241c1.09-0.043,2.214-0.094,3.204-0.551
					c1.75-0.809,2.743-2.784,2.853-4.708c0.11-1.925-0.643-4.152-1.399-5.925c1.296-1.314,2.122-3.083,2.298-4.92
					c0.176-1.838-0.298-3.731-1.321-5.268c1.109-0.402,1.834-1.642,1.732-2.818c-0.102-1.175-1.061-2.223-2.223-2.427
					c-0.986-0.174-1.973,0.206-2.952,0.418c-1.663,0.361-3.394,0.24-5.079-0.004c-1.685-0.244-3.355-0.608-5.052-0.732
					c-1.373-0.1-2.778-0.016-4.087,0.385C196.334,103.54,193.256,107.674,190.858,112.136z"/>
				<g>
					<path style="fill:#FFA8A7;" d="M209.02,124.128v5.593c0,0,4.572,2.923,2.647,4.469c-3.631,2.916-11.413-4.5-11.413-4.5v-9.308
						L209.02,124.128z"/>
					<path style="opacity:0.3;" d="M200.254,120.382c1.346,4.007,6.249,7.045,8.766,7.652v-3.906L200.254,120.382z"/>
				</g>
				<path style="fill:#FFA8A7;" d="M201.3,114.023c0.09,0.525,0.184,1.581,0.098,2.107s-0.312,1.04-0.698,1.407
					c-0.387,0.367-0.897,0.528-1.419,0.419c0.276-1.373-0.68-2.878-2.04-3.211c-1.361-0.333-2.904,0.561-3.292,1.906
					c-0.279,0.966,0.002,2.034,0.575,2.86c0.573,0.826,1.411,1.435,2.295,1.913c1.046,0.382,2.219-0.121,2.771-1.088
					c2.672,3.388,7.332,5.93,11.698,5.565c1.186-0.099,2.38-0.442,3.321-1.171c1.651-1.278,1.773-3.206,1.982-5.11
					c0.265-2.41,0.331-4.859-0.056-7.26c-0.535-3.318-2.012-6.579-4.588-8.738C210.45,110.837,203.833,113.491,201.3,114.023z"/>
				<g>
					<polygon style="fill:#F28F8F;" points="210.392,113.202 213.381,116.887 210.601,117.842 					"/>
					<path style="fill:#F28F8F;" d="M208.049,119.637c0.776,0.246,1.551,0.492,2.327,0.738c-0.244,0.54-1.009,0.871-1.579,0.71
						C208.228,120.923,207.973,120.225,208.049,119.637z"/>
					<path style="opacity:0.3;" d="M208.049,119.637c0.776,0.246,1.551,0.492,2.327,0.738c-0.244,0.54-1.009,0.871-1.579,0.71
						C208.228,120.923,207.973,120.225,208.049,119.637z"/>
					<path style="fill:#F28F8F;" d="M209.562,121.045c-0.254,0.084-0.526,0.107-0.764,0.039c-0.447-0.127-0.697-0.585-0.749-1.06
						c0.309-0.044,0.632,0.012,0.9,0.172C209.257,120.382,209.475,120.697,209.562,121.045z"/>
					<path style="fill:#263238;" d="M206.275,113.969c0.021,0.458,0.409,0.812,0.866,0.792c0.458-0.021,0.813-0.409,0.792-0.866
						c-0.021-0.458-0.409-0.812-0.867-0.792C206.609,113.123,206.255,113.511,206.275,113.969z"/>
					<path style="fill:#263238;" d="M213.223,113.387c0.02,0.458,0.408,0.812,0.866,0.792c0.458-0.021,0.812-0.408,0.792-0.866
						c-0.021-0.458-0.409-0.812-0.867-0.792C213.557,112.541,213.202,112.929,213.223,113.387z"/>
					<path style="fill:#263238;" d="M213.881,110.051c0.632,0.396,1.263,0.792,1.895,1.188c0.162-0.444-0.038-1.002-0.417-1.285
						C214.979,109.672,214.261,109.769,213.881,110.051z"/>
					<path style="fill:#263238;" d="M206.778,110.271c-0.593,0.451-1.187,0.902-1.781,1.354c-0.201-0.428-0.052-1.002,0.3-1.317
						C205.65,109.993,206.375,110.024,206.778,110.271z"/>
				</g>
			</g>
		</g>
	</g>
</g>
<g id="Character">
	<g>
		<g>
			<path style="fill:#BA68C8;" d="M296.075,270.488c-10.246,7.115-21.786,12.037-30.343,21.576
				c-15.981,17.817-16.355,46.484-3.802,66.863c12.552,20.379,35.897,32.623,59.667,35.425c24.939,2.94,51.11-3.951,70.676-19.692
				c19.566-15.741,32.014-40.335,32.005-65.447c-0.009-25.112-12.872-50.117-33.906-63.835
				c-19.19-12.515-46.763-16.085-66.017-1.765c-9.735,7.24-16.224,17.926-25.934,25.186
				C297.647,269.378,296.865,269.939,296.075,270.488z"/>
			<path style="opacity:0.3;" d="M296.075,270.488c-10.246,7.115-21.786,12.037-30.343,21.576
				c-15.981,17.817-16.355,46.484-3.802,66.863c12.552,20.379,35.897,32.623,59.667,35.425c24.939,2.94,51.11-3.951,70.676-19.692
				c19.566-15.741,32.014-40.335,32.005-65.447c-0.009-25.112-12.872-50.117-33.906-63.835
				c-19.19-12.515-46.763-16.085-66.017-1.765c-9.735,7.24-16.224,17.926-25.934,25.186
				C297.647,269.378,296.865,269.939,296.075,270.488z"/>
			<path style="opacity:0.1;" d="M300.247,374.881c0.023-0.17,0.047-0.34,0.071-0.51c1.629-11.415,10.529-20.296,21.854-22.469
				c9.864-1.893,19.397-5.523,27.993-10.721c6.118-3.699,11.897-8.233,18.759-10.239c6.332-1.851,14.217-1.565,20.219,1.174
				c-5.768-6.055-15.654-8.72-23.556-5.982c5.469-8.371,10.281-17.389,12.166-27.209c1.885-9.82,0.546-20.596-5.376-28.654
				c-5.028-6.842-13.212-11.262-21.691-11.716c-8.479-0.453-17.087,3.069-22.816,9.336c-5.865,6.415-9.17,15.442-13.022,23.234
				c-2.766,5.597-5.627,11.323-10.187,15.588c-6.881,6.436-16.775,8.756-23.908,14.912c-8.088,6.98-11.577,18.141-11.613,28.825
				c-0.025,7.21,1.333,14.306,3.13,21.312c8.191,7.97,18.325,13.982,29.253,17.887C299.873,385.002,299.571,379.806,300.247,374.881
				z"/>
			<g>
				<path style="fill:#FFFFFF;" d="M410.888,305.769c-0.419-21.368-10.577-42.166-27.171-55.633
					c-10.152-8.239-22.492-13.55-35.351-15.524c-2.386,0.235-4.748,0.631-7.07,1.186c14.92,0.873,29.544,6.376,41.203,15.839
					c16.158,13.114,26.048,33.365,26.456,54.171c0.459,23.371-10.974,47.192-30.581,63.722
					c-15.366,12.956-35.778,21.545-58.214,24.637c0.478,0.064,0.957,0.131,1.435,0.187c2.017,0.238,4.042,0.405,6.071,0.514
					c19.933-3.866,37.985-12.083,51.953-23.86C399.669,354.104,411.358,329.716,410.888,305.769z"/>
			</g>
		</g>
		<g>
			<g>
				<g>
					<path style="fill:#916160;" d="M272.788,370.514c1.003,3.999,1.201,11.209,1.201,11.209l2.659-1.002
						c2.578-0.971,5.486-0.309,7.389,1.682l0.131,0.137c0.989,1.035,2.617,1.109,3.696,0.167l0,0
						c0.56-0.489,0.892-1.189,0.915-1.933l0.357-11.318L272.788,370.514z"/>
					<path style="fill:#FFFFFF;" d="M283.053,412.579c-5.518,5.903-15.678,11.062-23.06,6.027l0.829,1.878
						c7.382,5.035,17.542-0.125,23.06-6.027c5.518-5.903,1.937-9.992,6.903-15.228c3.239-3.206,4.293-6.378,4.293-6.378
						c-0.22-0.564-0.432-1.299-0.692-2.142c-0.655,1.473-2.121,4.357-4.43,6.642C284.99,402.587,288.571,406.676,283.053,412.579z"
						/>
					<path style="fill:#BA68C8;" d="M291.666,384.542c-1.214-1.907-1.617-3.225-1.734-4.025c-0.1-0.683-0.507-1.277-1.093-1.641
						l-0.06,1.899c-0.024,0.743-0.355,1.444-0.915,1.933c-1.079,0.941-2.707,0.868-3.696-0.167l-0.131-0.137
						c-1.903-1.992-4.812-2.654-7.389-1.682l-2.702,1.018c-0.826,0.312-1.363,1.106-1.343,1.989
						c0.173,7.74-3.443,18.02-7.233,23.667c-3.899,1.614-7.265,6.928-5.547,10.823l0.171,0.388
						c7.382,5.034,17.543-0.124,23.06-6.027c5.518-5.903,1.938-9.992,6.903-15.228c2.309-2.285,3.775-5.169,4.43-6.642
						C293.865,389.017,293.139,386.857,291.666,384.542z"/>
					<g>
						<path style="fill:#FFFFFF;" d="M280.871,395.716c0.458,0.232,1.02,0.036,1.252-0.422c0.229-0.453,0.066-1.019-0.384-1.252
							c-4.245-2.194-7.885-1.465-10.6,0.017c-0.165,0.61-0.34,1.216-0.526,1.819C273.739,394.29,276.91,393.713,280.871,395.716z"/>
						<path style="fill:#FFFFFF;" d="M282.23,391.531c0.458,0.232,1.02,0.036,1.252-0.422c0.229-0.453,0.066-1.019-0.384-1.252
							c-4.221-2.181-8.093-1.52-11.029,0.088c-0.111,0.63-0.241,1.264-0.382,1.898C274.906,390.146,278.149,389.467,282.23,391.531z
							"/>
						<path style="fill:#FFFFFF;" d="M279.38,399.879c0.458,0.232,1.02,0.036,1.252-0.422c0.229-0.453,0.067-1.019-0.384-1.252
							c-4.128-2.133-7.685-1.503-10.373-0.103c-0.235,0.656-0.482,1.298-0.736,1.931C272.259,398.452,275.426,397.88,279.38,399.879
							z"/>
						<path style="fill:#FFFFFF;" d="M265.369,407.395c-3.899,1.614-7.265,6.928-5.547,10.823l0.171,0.388
							c7.273,4.96,17.233,0.024,22.803-5.768C278.15,403.728,268.439,405.999,265.369,407.395z"/>
						<path style="fill:#FFFFFF;" d="M277.748,403.946c0.458,0.232,1.019,0.036,1.251-0.422c0.229-0.453,0.067-1.019-0.384-1.252
							c-4.138-2.139-7.703-1.5-10.394-0.093c-0.33,0.722-0.67,1.414-1.017,2.079C270.424,402.561,273.666,401.883,277.748,403.946z"
							/>
					</g>
				</g>
				<g>
					<path style="fill:#916160;" d="M261.188,393.017c-0.697,4.064-3.425,10.74-3.425,10.74l2.837,0.156
						c2.75,0.152,5.144,1.932,6.082,4.522l0.065,0.178c0.487,1.346,1.947,2.071,3.314,1.645l0,0c0.71-0.221,1.296-0.728,1.617-1.398
						l4.895-10.211L261.188,393.017z"/>
					<path style="fill:#FFFFFF;" d="M253.603,435.646c-7.431,3.173-18.81,3.793-23.531-3.793v2.053
						c4.722,7.586,16.1,6.967,23.531,3.793c7.431-3.174,5.805-8.36,12.462-11.147c4.258-1.625,6.502-4.103,6.502-4.103
						c0.026-0.605,0.129-1.363,0.232-2.239c-1.194,1.083-3.7,3.13-6.734,4.289C259.408,427.286,261.033,432.472,253.603,435.646z"/>
					<path style="fill:#BA68C8;" d="M272.799,413.471c-0.341-2.235-0.178-3.603,0.038-4.383c0.184-0.666,0.052-1.373-0.338-1.943
						l-0.822,1.714c-0.321,0.671-0.907,1.177-1.617,1.399c-1.367,0.426-2.827-0.299-3.314-1.645l-0.065-0.178
						c-0.938-2.59-3.331-4.37-6.082-4.522l-2.883-0.159c-0.882-0.048-1.694,0.462-2.032,1.277
						c-2.966,7.151-10.423,15.097-16.171,18.735c-4.219-0.097-9.443,3.406-9.443,7.663v0.424c4.722,7.586,16.1,6.967,23.531,3.793
						c7.431-3.174,5.805-8.36,12.462-11.146c3.034-1.159,5.54-3.205,6.734-4.289C273.005,418.452,273.212,416.183,272.799,413.471z"
						/>
					<g>
						<path style="fill:#FFFFFF;" d="M258.413,419.337c0.326,0.397,0.918,0.445,1.315,0.119c0.393-0.322,0.472-0.905,0.154-1.3
							c-2.998-3.72-6.623-4.523-9.705-4.263c-0.397,0.491-0.802,0.975-1.216,1.452C252.462,415.154,255.597,415.906,258.413,419.337
							z"/>
						<path style="fill:#FFFFFF;" d="M261.345,416.057c0.326,0.397,0.918,0.445,1.315,0.119c0.392-0.322,0.472-0.905,0.154-1.3
							c-2.982-3.699-6.79-4.657-10.127-4.371c-0.355,0.531-0.73,1.059-1.115,1.583C255.202,411.833,258.443,412.521,261.345,416.057
							z"/>
						<path style="fill:#FFFFFF;" d="M255.368,422.545c0.326,0.397,0.918,0.445,1.315,0.119c0.392-0.322,0.472-0.905,0.154-1.3
							c-2.916-3.617-6.424-4.476-9.449-4.281c-0.48,0.505-0.965,0.993-1.453,1.47C249.428,418.365,252.557,419.12,255.368,422.545z"
							/>
						<path style="fill:#FFFFFF;" d="M239.515,423.766c-4.219-0.097-9.443,3.406-9.443,7.663v0.424
							c4.652,7.474,15.758,6.977,23.192,3.926C252.689,425.569,242.887,423.728,239.515,423.766z"/>
						<path style="fill:#FFFFFF;" d="M252.233,425.607c0.326,0.397,0.918,0.445,1.315,0.119c0.392-0.322,0.472-0.905,0.154-1.3
							c-2.923-3.627-6.442-4.481-9.472-4.28c-0.593,0.528-1.183,1.023-1.769,1.492C246.091,421.383,249.331,422.071,252.233,425.607
							z"/>
					</g>
				</g>
				<path style="fill:#37474F;" d="M304.845,296.357l-37.196,20.724c-6.913,3.852-10.596,11.686-9.151,19.467l7.219,38.879
					l-5.921,18.81c5.109,6.85,16.836,7.199,16.836,7.199c6.541-13.12,11.34-18.693,15.056-29.685
					c3.715-10.991,6.192-18.577,6.192-18.577l30.892-8.442c14.441-3.947,25.09-16.269,26.767-31.145
					c0.527-4.671,0.55-7.861,0.55-7.861L304.845,296.357z"/>
				<path style="opacity:0.2;" d="M305.127,306.806c-0.009,4.11,1.494,8.208,4.16,11.336l-26.247,16.429
					c-3.852,2.411-6.704,6.131-8.033,10.476l-9.29,30.378l8.379-33.832c0.964-3.891,3.413-7.251,6.823-9.359l24.236-14.98
					C302.677,311.064,305.127,306.806,305.127,306.806z"/>
			</g>
			<g>
				<path style="fill:#BA68C8;" d="M296.647,277.582c-2.651,5.008-21.513,2.762-20.73-5.426
					C280.876,261.815,296.495,268.486,296.647,277.582z"/>
				<g>
					<g>
						<g>
							<path style="fill:#916160;" d="M308.872,232.447l-0.959,0.011c-6.427,0.072-14.556,4.444-18.528,15.659l-15.437,29.897
								l17.622,7.813l9.639-28.22L308.872,232.447z"/>
						</g>
						<path style="fill:#7A4C4A;" d="M296.497,252.289c-1.231,3.531-1.308,7.34-1.502,11.074c-0.194,3.734-0.627,8.243-2.337,11.568
							c-1.867-1.292-4.158-1.962-6.427-1.879c-2.269,0.082-4.505,0.917-6.273,2.341c-1.272,1.025-2.217,2.434-2.858,4.017
							l14.471,6.416l9.639-28.22l4.739-15.561C301.616,244.035,298.071,247.777,296.497,252.289z"/>
					</g>
					<g>
						<path style="fill:#916160;" d="M291.733,280.431c-1.297-3.332-4.441-5.874-7.971-6.445c-3.53-0.57-7.533,1.274-9.814,4.027
							c-1.923,2.322-1.621,5.463-0.408,8.224c1.901,4.329,7.202,6.841,11.756,5.569C289.85,290.535,293.448,284.838,291.733,280.431
							z"/>
					</g>
				</g>
				<path style="fill:#BA68C8;" d="M308.872,232.447c-7.678-0.852-17.462,1-32.955,39.709c9.136-9.061,20.73,5.426,20.73,5.426
					c6.635-15.571,18.39-41.651,18.39-41.651L308.872,232.447z"/>
				<path style="opacity:0.2;fill:#FFFFFF;" d="M308.872,232.447c-7.678-0.852-17.462,1-32.955,39.709
					c9.136-9.061,20.73,5.426,20.73,5.426c6.635-15.571,18.39-41.651,18.39-41.651L308.872,232.447z"/>
				<path style="fill:#BA68C8;" d="M359.9,322.916c-14.866,12.389-45.338-17.572-61.67-22.874
					c5.053-11.407,5.025-21.817,3.99-33.331c-1.035-11.514-7.762-31.651,5.088-33.993c17.162-3.351,25.834-0.272,39.845,3.376
					C367.257,264.964,360.935,301.312,359.9,322.916z"/>
				<path style="opacity:0.7;fill:#FFFFFF;" d="M359.9,322.916c-14.866,12.389-45.338-17.572-61.67-22.874
					c5.053-11.407,5.025-21.817,3.99-33.331c-1.035-11.514-7.762-31.651,5.088-33.993c17.162-3.351,25.834-0.272,39.845,3.376
					C367.257,264.964,360.935,301.312,359.9,322.916z"/>
				<g>
					<g>
						<path style="fill:#916160;" d="M314.792,226.846l0.666,7.443c0.052,0.579-0.132,1.137-0.421,1.641
							c-0.836,1.458-0.577,3.787,0.657,4.863c0.898,0.783,2.136,1.041,3.324,1.127c4.591,0.334,9.274-1.647,12.3-4.745
							c0.66-0.676,0.998-1.603,0.974-2.548l-0.488-18.874L314.792,226.846z"/>
						<path style="fill:#7A4C4A;" d="M331.803,215.754l-17.012,11.093l0.59,6.6c3.607-0.845,7.235-1.887,10.089-4.207
							C329.101,226.288,332.293,223.362,331.803,215.754z"/>
					</g>
					<g>
						<path style="fill:#263238;" d="M336.953,204.324c1.688-1.969,2.554-4.622,2.352-7.208c-0.202-2.586-1.693-5.315-3.667-6.998
							c1.433-2.542,1.17-5.939-0.637-8.23c-1.807-2.292-5.064-3.042-7.87-2.243c-1.561-2.2-4.143-3.642-6.835-3.818
							c-2.692-0.176-5.384,0.305-7.218,2.282c-2.124-1.303-4.867-1.538-7.182-0.617c-2.315,0.921-4.336,3.286-4.984,5.692
							c-2.647-0.541-5.547,0.41-7.36,2.413c-1.813,2.003-2.407,5.827-1.606,8.407c-1.1,1.641-1.466,3.754-0.983,5.669
							c0.483,1.915,1.808,3.602,3.555,4.525c-0.605,3.991,1.999,8.229,5.833,9.494c1.334,3.118,3.972,5.442,7.288,6.151
							c3.316,0.709,6.788,0.183,10.032-0.806C325.523,216.643,331.61,210.557,336.953,204.324z"/>
						<path style="fill:#916160;" d="M320.538,195.002c0.298,1.253,0.678,2.484,1.354,3.572c0.818,1.316,2.108,2.308,3.608,2.48
							c0.35,0.04,0.618,0.332,0.663,0.681l0.81,6.301c0.097,0.755,0.26,1.614,0.915,2.001c0.6,0.354,1.404,0.141,1.93-0.315
							c0.526-0.457,0.837-1.106,1.133-1.737c0.622-1.323,1.255-2.667,2.227-3.758c0.972-1.091,2.348-1.915,3.809-1.877
							c2.391,0.06,4.209,2.442,4.46,4.82c0.258,2.444-0.82,4.987-2.754,6.502c-1.935,1.515-4.645,1.663-6.956,0.827
							c1.085,4.137-1.082,8.578-4.303,11.391c-3.221,2.813-7.342,4.329-11.362,5.788c-2.198,0.797-4.528,1.607-6.826,1.178
							c-1.869-0.349-3.516-1.504-4.763-2.939c-1.247-1.435-2.133-3.144-2.933-4.869c-3.652-7.873-5.738-16.469-6.102-25.14
							C298.729,199.506,318.707,195.717,320.538,195.002z"/>
						<g>
							<polygon style="fill:#F28F8F;" points="309.416,210.763 306.042,219.658 311.936,219.729 							"/>
							<polygon style="fill:#7A4C4A;" points="309.416,210.763 306.042,219.658 311.936,219.729 							"/>
							<path style="fill:#F28F8F;" d="M317.922,221.541c-1.322,0.956-2.644,1.912-3.966,2.868c0.804,0.874,2.468,1.025,3.451,0.359
								C318.39,224.102,318.436,222.612,317.922,221.541z"/>
							<path style="opacity:0.4;" d="M317.922,221.541c-1.322,0.956-2.644,1.912-3.966,2.868c0.804,0.874,2.468,1.025,3.451,0.359
								C318.39,224.102,318.436,222.612,317.922,221.541z"/>
							<path style="fill:#F28F8F;" d="M315.927,225.174c0.537,0.001,1.069-0.127,1.48-0.406c0.772-0.523,0.96-1.552,0.759-2.488
								c-0.615,0.111-1.196,0.42-1.605,0.894C316.091,223.719,315.874,224.456,315.927,225.174z"/>
							<path style="fill:#263238;" d="M317.735,209.635c0.249,0.885-0.267,1.803-1.151,2.052c-0.885,0.249-1.803-0.267-2.052-1.151
								c-0.249-0.885,0.267-1.804,1.152-2.052C316.568,208.235,317.486,208.751,317.735,209.635z"/>
							<path style="fill:#263238;" d="M304.142,212.896c0.249,0.884-0.267,1.803-1.151,2.052c-0.885,0.249-1.803-0.267-2.052-1.152
								c-0.249-0.884,0.267-1.803,1.151-2.052C302.975,211.495,303.893,212.011,304.142,212.896z"/>
							<path style="fill:#263238;" d="M300.792,206.959c-0.953,1.151-1.907,2.302-2.86,3.453c-0.588-0.743-0.557-1.932-0.013-2.708
								C298.462,206.928,299.892,206.66,300.792,206.959z"/>
							<path style="fill:#263238;" d="M314.453,202.912c1.413,0.486,2.827,0.972,4.241,1.457c0.114-0.941-0.531-1.939-1.4-2.318
								C316.425,201.672,315.065,202.188,314.453,202.912z"/>
						</g>
					</g>
				</g>
				<g>
					<g>
						<g>
							<g style="enable-background:new    ;">
								<path style="fill:#E0E0E0;" d="M309.914,307.854c-0.001-0.007-0.002-0.014-0.003-0.021c0-0.002-0.001-0.003-0.001-0.005
									c-0.002-0.012-0.003-0.022-0.005-0.034c-0.004-0.019-0.009-0.039-0.015-0.06c-0.005-0.019-0.011-0.038-0.018-0.057
									c-0.007-0.019-0.014-0.038-0.022-0.058c-0.008-0.019-0.016-0.039-0.025-0.059c-0.009-0.019-0.018-0.039-0.028-0.059
									c-0.01-0.02-0.02-0.04-0.031-0.061c-0.001-0.001-0.001-0.003-0.002-0.004l-11.535-21.474c-0.011-0.02-0.022-0.04-0.033-0.06
									c-0.012-0.021-0.025-0.043-0.038-0.065c-0.013-0.021-0.027-0.043-0.041-0.065c-0.014-0.022-0.029-0.044-0.044-0.067
									c-0.015-0.023-0.031-0.046-0.047-0.069c-0.016-0.023-0.033-0.047-0.05-0.07c-0.017-0.023-0.034-0.046-0.052-0.07
									c-0.017-0.022-0.034-0.045-0.052-0.067c-0.017-0.021-0.033-0.042-0.051-0.064c-0.016-0.019-0.031-0.039-0.047-0.058
									c-0.014-0.016-0.027-0.033-0.041-0.049c-0.014-0.016-0.028-0.033-0.042-0.049c-0.011-0.013-0.023-0.026-0.034-0.039
									c-0.01-0.012-0.021-0.023-0.031-0.035c-0.01-0.012-0.021-0.023-0.031-0.035c-0.01-0.012-0.021-0.023-0.031-0.035
									c-0.008-0.009-0.017-0.018-0.025-0.027c-0.008-0.008-0.016-0.017-0.024-0.025c-0.008-0.009-0.016-0.017-0.024-0.025
									c-0.008-0.009-0.016-0.017-0.024-0.026c-0.008-0.008-0.016-0.017-0.024-0.026c-0.007-0.008-0.015-0.015-0.023-0.023
									c-0.007-0.007-0.014-0.015-0.021-0.022c-0.007-0.007-0.014-0.015-0.021-0.022c-0.007-0.007-0.014-0.014-0.021-0.022
									c-0.007-0.007-0.014-0.014-0.022-0.022c-0.007-0.007-0.014-0.014-0.021-0.021c-0.007-0.008-0.015-0.015-0.023-0.023
									c-0.008-0.008-0.016-0.015-0.024-0.023c-0.008-0.008-0.016-0.016-0.024-0.024c-0.008-0.008-0.016-0.015-0.024-0.023
									c-0.008-0.008-0.016-0.016-0.024-0.023c-0.008-0.008-0.017-0.016-0.025-0.023c-0.013-0.012-0.026-0.024-0.038-0.036
									c-0.015-0.014-0.029-0.027-0.043-0.041c-0.015-0.013-0.029-0.027-0.044-0.04c-0.055-0.051-0.111-0.1-0.167-0.15
									c-0.012-0.01-0.024-0.021-0.036-0.031c-0.012-0.011-0.024-0.021-0.036-0.031c-0.012-0.01-0.025-0.021-0.037-0.031
									c-0.012-0.01-0.024-0.02-0.036-0.03c-0.008-0.007-0.016-0.013-0.024-0.02c-0.008-0.007-0.016-0.013-0.024-0.02
									c-0.008-0.007-0.016-0.013-0.024-0.02c-0.008-0.007-0.016-0.013-0.024-0.02c-0.008-0.006-0.016-0.013-0.024-0.019
									c-0.008-0.006-0.016-0.013-0.024-0.019c-0.008-0.006-0.016-0.013-0.023-0.019c-0.008-0.006-0.016-0.012-0.023-0.018
									c-0.008-0.006-0.016-0.012-0.023-0.018c-0.008-0.006-0.016-0.012-0.023-0.018c-0.008-0.006-0.016-0.012-0.023-0.018
									c-0.008-0.006-0.016-0.012-0.023-0.018c-0.009-0.007-0.017-0.013-0.025-0.02c-0.009-0.007-0.019-0.014-0.028-0.022
									c-0.01-0.007-0.019-0.014-0.029-0.021c-0.009-0.008-0.019-0.014-0.028-0.021c-0.01-0.007-0.019-0.014-0.029-0.021
									c-0.01-0.007-0.02-0.014-0.029-0.022c-0.013-0.009-0.026-0.019-0.04-0.028c-0.013-0.01-0.026-0.019-0.039-0.028
									c-0.013-0.009-0.026-0.018-0.04-0.028c-0.014-0.01-0.029-0.02-0.043-0.03c-0.019-0.013-0.037-0.025-0.056-0.038
									c-0.019-0.013-0.037-0.025-0.056-0.037c-0.021-0.014-0.042-0.028-0.063-0.041c-0.023-0.015-0.047-0.03-0.07-0.044
									c-0.024-0.015-0.048-0.029-0.072-0.044c-0.025-0.015-0.05-0.03-0.076-0.044c-0.015-0.009-0.03-0.017-0.044-0.025
									l-13.262-7.46c-0.011-0.006-0.021-0.012-0.032-0.018c-0.026-0.014-0.051-0.028-0.077-0.041
									c-0.025-0.013-0.05-0.026-0.074-0.038c-0.025-0.012-0.049-0.024-0.073-0.035c-0.024-0.012-0.048-0.023-0.072-0.033
									c-0.024-0.011-0.047-0.021-0.07-0.03c-0.024-0.01-0.047-0.02-0.07-0.028c-0.023-0.009-0.047-0.017-0.069-0.025
									c-0.025-0.009-0.048-0.016-0.072-0.023c-0.025-0.008-0.049-0.014-0.072-0.02c-0.017-0.004-0.033-0.007-0.049-0.01
									c-0.001-0.001-0.003-0.001-0.004-0.001c-0.007-0.001-0.014-0.003-0.021-0.005c-0.028-0.005-0.054-0.009-0.079-0.011
									c-0.033-0.003-0.064-0.004-0.093-0.002c-0.09,0.005-0.157,0.032-0.2,0.082l-1.582,1.811c0.009-0.011,0.042,0,0.054-0.009
									c-0.132,0.099-0.14,0.311,0.049,0.664l11.535,21.474c0.415,0.773,1.544,1.851,2.542,2.412l13.261,7.46
									c0.684,0.385,1.094,0.394,1.153,0.114c-0.008,0.041-0.002,0.095-0.026,0.122l0,0l0,0l1.582-1.81
									c0.02-0.023,0.035-0.051,0.044-0.083c0.006-0.022,0.01-0.047,0.011-0.073C309.917,307.898,309.916,307.877,309.914,307.854z
									 M280.012,277.599c0.038,0.002,0.048-0.024,0.092-0.015c0.001,0,0.003,0,0.004,0.001c0.012,0.002,0.034,0.016,0.047,0.019
									C280.095,277.59,280.061,277.602,280.012,277.599z M295.217,286.161c0.122,0.104,0.25,0.202,0.365,0.311l0,0
									C295.467,286.363,295.339,286.266,295.217,286.161z M296.047,286.967c0.051,0.057,0.114,0.115,0.161,0.171c0,0,0,0,0,0
									C296.16,287.082,296.097,287.025,296.047,286.967z M308.323,309.676c-0.007-0.113-0.045-0.251-0.14-0.429
									c0.083,0.155,0.13,0.286,0.146,0.393c0,0.001,0.001,0.003,0.001,0.004C308.331,309.658,308.322,309.663,308.323,309.676z"/>
							</g>
						</g>
						<path style="opacity:0.15;" d="M309.914,307.854c-0.001-0.007-0.002-0.014-0.003-0.021c0-0.002-0.001-0.003-0.001-0.005
							c-0.002-0.012-0.003-0.022-0.005-0.034c-0.004-0.019-0.009-0.039-0.015-0.06c-0.005-0.019-0.011-0.038-0.018-0.057
							c-0.007-0.019-0.014-0.038-0.022-0.058c-0.008-0.019-0.016-0.039-0.025-0.059c-0.009-0.019-0.018-0.039-0.028-0.059
							c-0.01-0.02-0.02-0.04-0.031-0.061c-0.001-0.001-0.001-0.003-0.002-0.004l-11.535-21.474l-1.582,1.81l11.535,21.474
							c0.083,0.155,0.13,0.286,0.146,0.393c0,0.001,0.001,0.003,0.001,0.004c0.015,0.106-0.003,0.186-0.051,0.241l0,0l0,0l0,0
							l1.582-1.81c0.02-0.023,0.035-0.051,0.044-0.083c0.006-0.022,0.01-0.047,0.011-0.073
							C309.917,307.898,309.916,307.877,309.914,307.854z"/>
						<path style="opacity:0.2;" d="M298.196,285.903c-0.012-0.021-0.025-0.043-0.038-0.065c-0.013-0.021-0.027-0.043-0.041-0.065
							c-0.014-0.022-0.029-0.044-0.044-0.067c-0.015-0.023-0.031-0.046-0.047-0.069c-0.016-0.023-0.033-0.047-0.05-0.07
							c-0.017-0.023-0.034-0.046-0.052-0.07c-0.017-0.022-0.034-0.045-0.052-0.067c-0.017-0.021-0.033-0.042-0.051-0.064
							c-0.016-0.019-0.031-0.039-0.047-0.058c-0.014-0.016-0.027-0.033-0.041-0.049c-0.014-0.016-0.028-0.033-0.042-0.049
							c-0.011-0.013-0.023-0.026-0.034-0.039c-0.01-0.012-0.021-0.023-0.031-0.035c-0.01-0.012-0.021-0.023-0.031-0.035
							c-0.01-0.012-0.021-0.023-0.031-0.035c-0.008-0.009-0.017-0.018-0.025-0.027c-0.008-0.008-0.016-0.017-0.024-0.025
							c-0.008-0.009-0.016-0.017-0.024-0.025c-0.008-0.009-0.016-0.017-0.024-0.026c-0.008-0.008-0.016-0.017-0.024-0.026
							c-0.007-0.008-0.015-0.015-0.023-0.023c-0.007-0.007-0.014-0.015-0.021-0.022c-0.007-0.007-0.014-0.015-0.021-0.022
							c-0.007-0.007-0.014-0.014-0.021-0.022c-0.007-0.007-0.014-0.014-0.022-0.022c-0.007-0.007-0.014-0.014-0.021-0.021
							c-0.007-0.008-0.015-0.015-0.023-0.023c-0.008-0.008-0.016-0.015-0.024-0.023c-0.008-0.008-0.016-0.016-0.024-0.024
							c-0.008-0.008-0.016-0.015-0.024-0.023c-0.008-0.008-0.016-0.016-0.024-0.023c-0.008-0.008-0.017-0.016-0.025-0.023
							c-0.013-0.012-0.026-0.024-0.038-0.036c-0.015-0.014-0.029-0.027-0.043-0.041c-0.015-0.013-0.029-0.027-0.044-0.04
							c-0.055-0.051-0.111-0.1-0.167-0.15c-0.012-0.01-0.024-0.021-0.036-0.031c-0.012-0.011-0.024-0.021-0.036-0.031
							c-0.012-0.01-0.025-0.021-0.037-0.031c-0.012-0.01-0.024-0.02-0.036-0.03c-0.008-0.007-0.016-0.013-0.024-0.02
							c-0.008-0.007-0.016-0.013-0.024-0.02c-0.008-0.007-0.016-0.013-0.024-0.02c-0.008-0.007-0.016-0.013-0.024-0.02
							c-0.008-0.006-0.016-0.013-0.024-0.019c-0.008-0.006-0.016-0.013-0.024-0.019c-0.008-0.006-0.016-0.013-0.023-0.019
							c-0.008-0.006-0.016-0.012-0.023-0.018c-0.008-0.006-0.016-0.012-0.023-0.018c-0.008-0.006-0.016-0.012-0.023-0.018
							c-0.008-0.006-0.016-0.012-0.023-0.018c-0.008-0.006-0.016-0.012-0.023-0.018c-0.009-0.007-0.017-0.013-0.025-0.02
							c-0.009-0.007-0.019-0.014-0.028-0.022c-0.01-0.007-0.019-0.014-0.029-0.021c-0.009-0.008-0.019-0.014-0.028-0.021
							c-0.01-0.007-0.019-0.014-0.029-0.021c-0.01-0.007-0.02-0.014-0.029-0.022c-0.013-0.009-0.026-0.019-0.04-0.028
							c-0.013-0.01-0.026-0.019-0.039-0.028c-0.013-0.009-0.026-0.018-0.04-0.028c-0.014-0.01-0.029-0.02-0.043-0.03
							c-0.019-0.013-0.037-0.025-0.056-0.038c-0.019-0.013-0.037-0.025-0.056-0.037c-0.021-0.014-0.042-0.028-0.063-0.041
							c-0.023-0.015-0.047-0.03-0.07-0.044c-0.024-0.015-0.048-0.029-0.072-0.044c-0.025-0.015-0.05-0.03-0.076-0.044
							c-0.015-0.009-0.03-0.017-0.044-0.025l-13.262-7.46c-0.011-0.006-0.021-0.012-0.032-0.018
							c-0.026-0.014-0.051-0.028-0.077-0.041c-0.025-0.013-0.05-0.026-0.074-0.038c-0.025-0.012-0.049-0.024-0.073-0.035
							c-0.024-0.012-0.048-0.023-0.072-0.033c-0.024-0.011-0.047-0.021-0.07-0.03c-0.024-0.01-0.047-0.02-0.07-0.028
							c-0.023-0.009-0.047-0.017-0.069-0.025c-0.025-0.009-0.048-0.016-0.072-0.023c-0.025-0.008-0.049-0.014-0.072-0.02
							c-0.017-0.004-0.033-0.007-0.049-0.01c-0.001-0.001-0.003-0.001-0.004-0.001c-0.007-0.001-0.014-0.003-0.021-0.005
							c-0.028-0.005-0.054-0.009-0.079-0.011c-0.033-0.003-0.064-0.004-0.093-0.002c-0.09,0.005-0.157,0.032-0.2,0.082l-1.582,1.811
							c0.07-0.08,0.204-0.102,0.394-0.064c0.001,0,0.003,0,0.004,0.001c0.19,0.039,0.436,0.138,0.729,0.303l13.262,7.46
							c0.245,0.138,0.5,0.309,0.752,0.501c0.001,0.001,0.001,0.001,0.002,0.001c0.251,0.192,0.499,0.403,0.73,0.622
							c0,0,0.001,0.001,0.001,0.001c0.23,0.219,0.443,0.445,0.625,0.665c0.001,0.001,0.002,0.002,0.002,0.003
							c0.182,0.221,0.332,0.435,0.438,0.632l1.582-1.81C298.219,285.943,298.207,285.923,298.196,285.903z"/>
					</g>
					<path style="fill:#916160;" d="M355.637,241.876c-1.879-3.228-4.761-5.501-8.485-5.781l-2.233,3.408
						c-2.324,4.248-3.516,9.023-3.462,13.864l0.401,35.834l0.008,0.002c-0.879,0.357-1.753,0.729-2.629,1.092
						c-7.254,3.012-15.3,5.693-23.051,6.965c-3.893-3.285-9.444-4.99-14.538-4.933l1.957,3.643
						c-3.707,2.373-12.077-1.905-12.077-1.905c-0.615,5.224,2.769,10.646,7.256,13.39c4.488,2.743,47.325-1.285,56.409-7.167
						c5.972-3.867,4.561-40.813,4.561-40.813C360.17,253.329,358.736,247.2,355.637,241.876z"/>
					<path style="fill:#916160;" d="M282.472,283.253c-0.124,1.132-0.616,3.153-0.487,4.285c0.384,3.39,1.752,6.717,4.132,9.162
						c0.51,0.525,1.084,1.018,1.776,1.255c0.693,0.237,1.528,0.17,2.065-0.328c0.57-0.529,0.674-1.381,0.72-2.157
						c0.069-1.161,0.085-2.34-0.191-3.469c-0.276-1.129-0.874-2.217-1.829-2.881c-0.696-0.484-1.53-0.716-2.32-1.023
						c-0.79-0.307-1.443-0.831-2.068-1.497L282.472,283.253z"/>
				</g>
				<path style="fill:#BA68C8;" d="M347.152,236.095c16.278,3.507,14.728,19.999,16.295,30.266
					c1.044,6.091,2.523,19.466,2.523,19.466c-8.875,8.203-24.623,2.808-28.538-1.455
					C338.91,263.751,335.904,239.588,347.152,236.095z"/>
				<path style="opacity:0.2;fill:#FFFFFF;" d="M347.152,236.095c16.278,3.507,14.728,19.999,16.295,30.266
					c1.044,6.091,2.523,19.466,2.523,19.466c-8.875,8.203-24.623,2.808-28.538-1.455
					C338.91,263.751,335.904,239.588,347.152,236.095z"/>
			</g>
		</g>
	</g>
</g>
<g id="Plant">
	<g>
		<g>
			<path style="fill:#FFFFFF;" d="M457.86,336.879l-16.531,0.482l-16.531-0.482c-0.712,11.164,1.468,22.541,4.473,28.098
				l0.011-0.002c0.538,1.219,1.62,2.376,3.272,3.33c4.878,2.816,12.76,2.816,17.607,0c1.68-0.977,2.761-2.165,3.271-3.416
				C456.413,359.302,458.568,347.987,457.86,336.879z"/>
			<g>
				<path style="fill:#EBEBEB;" d="M452.979,330.108c6.477,3.739,6.511,9.802,0.077,13.542c-6.435,3.74-16.902,3.74-23.379,0
					c-6.477-3.739-6.511-9.802-0.076-13.542C436.036,326.369,446.503,326.369,452.979,330.108z"/>
			</g>
			<g>
				<path style="fill:#E0E0E0;" d="M450.418,331.596c5.053,2.918,5.08,7.647,0.06,10.565c-5.02,2.917-13.186,2.918-18.239,0
					c-5.053-2.917-5.08-7.647-0.059-10.565C437.199,328.679,445.365,328.679,450.418,331.596z"/>
			</g>
			<g style="opacity:0.15;">
				<path d="M450.418,331.596c5.053,2.918,5.08,7.647,0.06,10.565c-5.02,2.917-13.186,2.918-18.239,0
					c-5.053-2.917-5.08-7.647-0.059-10.565C437.199,328.679,445.365,328.679,450.418,331.596z"/>
			</g>
		</g>
		<g>
			<path style="fill:#BA68C8;" d="M468.508,266.337c-37.254,12.198-37.591,37.121-29.193,54.869
				c2.118,3.593,8.528,5.522,14.107-16.551l-9.785,1.254l11.403-5.78l2.962-8.854l-9.508,0.706l12.068-5.076
				C465.01,273.456,468.508,266.337,468.508,266.337z"/>
			<path style="opacity:0.2;" d="M468.508,266.337c-37.254,12.198-37.591,37.121-29.193,54.869
				c2.118,3.593,8.528,5.522,14.107-16.551l-9.785,1.254l11.403-5.78l2.962-8.854l-9.508,0.706l12.068-5.076
				C465.01,273.456,468.508,266.337,468.508,266.337z"/>
			<path style="opacity:0.2;fill:#FFFFFF;" d="M468.508,266.337c-37.254,12.198-37.591,37.121-29.193,54.869
				c2.118,3.593,8.528,5.522,14.107-16.551l-9.785,1.254l11.403-5.78l2.962-8.854l-9.508,0.706l12.068-5.076
				C465.01,273.456,468.508,266.337,468.508,266.337z"/>
			<path style="fill:#FFFFFF;" d="M457.971,272.57c-19.646,14.911-21.419,32.005-15.869,49.852
				C440.139,306.707,438.017,290.818,457.971,272.57z"/>
		</g>
		<g>
			<path style="fill:#BA68C8;" d="M405.409,291.654c36.722,5.171,41.177,28.326,36.304,46.25c-1.376,3.698-7.025,6.56-15.888-13.07
				l9.321-0.458l-11.58-3.488l-4.229-7.754l8.972-0.922l-12.083-2.722C409.851,297.703,405.409,291.654,405.409,291.654z"/>
			<path style="opacity:0.2;fill:#FFFFFF;" d="M405.409,291.654c36.722,5.171,41.177,28.326,36.304,46.25
				c-1.376,3.698-7.025,6.56-15.888-13.07l9.321-0.458l-11.58-3.488l-4.229-7.754l8.972-0.922l-12.083-2.722
				C409.851,297.703,405.409,291.654,405.409,291.654z"/>
			<path style="opacity:0.1;" d="M405.409,291.654c36.722,5.171,41.177,28.326,36.304,46.25c-1.376,3.698-7.025,6.56-15.888-13.07
				l9.321-0.458l-11.58-3.488l-4.229-7.754l8.972-0.922l-12.083-2.722C409.851,297.703,405.409,291.654,405.409,291.654z"/>
			<path style="fill:#FFFFFF;" d="M416.258,295.708c20.773,10.622,25.266,26.248,23.062,43.791
				C438.538,324.537,437.874,309.387,416.258,295.708z"/>
		</g>
		<g>
			<path style="fill:#BA68C8;" d="M479.256,300.331c-33.677,0.551-40.283,20.922-37.898,37.622
				c0.826,3.487,5.597,6.698,15.783-10.002l-8.35-1.456l10.828-1.848l4.68-6.515l-7.983-1.835l11.195-1.101
				C474.576,305.286,479.256,300.331,479.256,300.331z"/>
			<path style="fill:#FFFFFF;" d="M469.024,302.77c-19.912,7.249-25.71,20.83-25.687,36.888
				C445.717,326.261,448.011,312.681,469.024,302.77z"/>
			<path style="opacity:0.2;fill:#FFFFFF;" d="M479.256,300.331c-33.677,0.551-40.283,20.922-37.898,37.622
				c0.826,3.487,5.597,6.698,15.783-10.002l-8.35-1.456l10.828-1.848l4.68-6.515l-7.983-1.835l11.195-1.101
				C474.576,305.286,479.256,300.331,479.256,300.331z"/>
		</g>
	</g>
</g>
</svg>
